<svg viewBox="0 0 512 512" xml:space="preserve" xmlns="http://www.w3.org/2000/svg"><path clip-rule="evenodd" d="M380.782 96.785c3.458 3.458 5.243 7.597 5.354 12.418v50.242h-10.369V352.67h10.369v50.242c-.111 4.822-1.896 8.961-5.354 12.419-3.572 3.569-7.863 5.354-12.878 5.354H144.095c-2.854 0-5.475-.569-7.862-1.708-1.806-.893-3.477-2.107-5.015-3.646-3.458-3.458-5.245-7.597-5.356-12.419V352.67h10.371V159.446h-10.371v-50.242c.111-4.822 1.897-8.96 5.356-12.418 3.571-3.569 7.863-5.356 12.877-5.356h223.809c5.015-.001 9.306 1.786 12.878 5.355zm-84.101 21.987v22.673h61.193v-22.673h-61.193zm-81.25 0h-61.307v22.673h61.307v-22.673zm79.085 40.674h-13.729V352.67h13.729V159.446zm31.681 0h-13.732V352.67h13.732V159.446zm31.678 0h-13.73V352.67h13.73V159.446zm-140.392 0V352.67h13.732V159.446h-13.732zm-31.679 0V352.67h13.731V159.446h-13.731zm-31.68 0V352.67h13.731V159.446h-13.731zm61.307 211.226h-61.307v22.67h61.307v-22.67zm142.444 0h-61.193v22.67h61.193v-22.67zM249.106 159.446V352.67h13.732V159.446h-13.732zM215.431 434.473h81.25v30.075h-81.25zM215.431 47.566h81.25v30.078h-81.25z" fill="#ffffff" fill-rule="evenodd" class="fill-333333"></path></svg>