<svg viewBox="0 0 480.156 330.055" xml:space="preserve" xmlns="http://www.w3.org/2000/svg"><path d="M454.078 124.988c11.453-4.039 22.297-10.301 25.094-19.859 5.742-19.631-47.172-20.342-51.07-20.342-1.594 2.686-6.648 9.053-9.375 12.43-7.32-19.75-17.969-44.07-32.313-66.598-7-10.986-16.828-17.67-29.188-19.857C317.859 3.781 287.523 0 240.078 0s-77.781 3.781-117.133 10.762c-12.375 2.188-22.203 8.871-29.195 19.859-14.352 22.529-25 46.846-32.32 66.596-2.727-3.373-7.781-9.744-9.375-12.43-3.898 0-56.813.711-51.07 20.342 2.797 9.559 13.641 15.82 25.094 19.859C10.289 135.309 0 156.582 0 200.197c0 26.457 3.219 62.537 4.953 80.094v36.318c0 7.426 6.023 13.445 13.445 13.445h64.43c7.43 0 13.445-6.02 13.445-13.445v-6.395c35.281-3.242 85.109-4.24 143.805-4.24s108.523.998 143.813 4.24v6.395c0 7.426 6.016 13.445 13.445 13.445h64.422c7.422 0 13.445-6.02 13.445-13.445v-36.35c1.734-17.57 4.953-53.623 4.953-80.063 0-43.614-10.289-64.887-26.078-75.208zM38.375 205.006l-3.734-8.961c-3.094-7.426-.086-14.246 7.844-13.445l49.281 6.434c8.219 1.25 14.172 6.02 17.266 13.445l1.055 2.527c3.641 8.738-.383 13.445-7.844 13.445H57.43c-9.375 0-15.282-4.398-19.055-13.445zm76.773 46.432H59.531c-3.32 0-6-2.686-6-6.002 0-3.314 2.68-6 6-6h55.617a6 6 0 0 1 0 12.002zM84.734 102.23c6.82-17.949 16.359-39.346 28.859-58.967 3.445-5.42 7.594-8.299 13.453-9.334 38.039-6.744 67.32-10.4 113.031-10.4s74.992 3.656 113.047 10.4c5.844 1.035 9.992 3.914 13.445 9.33 12.477 19.586 22.016 40.998 28.844 58.971-35.523-4.213-89.914-5.455-155.336-5.455-65.429 0-119.827 1.243-155.343 5.455zm335.899 149.208h-55.617c-3.32 0-6-2.686-6-6.002 0-3.314 2.68-6 6-6h55.617a6.001 6.001 0 0 1 0 12.002zm24.883-55.393-3.734 8.961c-3.773 9.047-9.672 13.445-19.047 13.445h-44.813c-7.461 0-11.484-4.707-7.844-13.445l1.055-2.527c3.094-7.426 9.039-12.195 17.266-13.445l49.273-6.434c7.937-.801 10.937 6.019 7.844 13.445z" fill="#ffffff" class="fill-000000"></path></svg>