<svg viewBox="0 0 16 16" xml:space="preserve" xmlns="http://www.w3.org/2000/svg"><g fill="#ffffff" class="fill-1d1d1b"><path d="M14.5 5.5c0 1.105-.895 2-2 2h-9c-1.105 0-2-.895-2-2a1 1 0 0 0-1 1v2c0 1.105.895 2 2 2h11c1.105 0 2-.895 2-2v-2a1 1 0 0 0-1-1zM2.505 9.375c-.207 0-.38-.168-.38-.375s.163-.375.37-.375h.01a.375.375 0 0 1 0 .75zm9.245-.125h-7.5v-.5h7.5v.5zm1.755.125c-.207 0-.38-.168-.38-.375s.163-.375.37-.375h.01a.375.375 0 0 1 0 .75z"></path><path d="m10.125 7 .375-1.5h-5L5.875 7z"></path></g></svg>