<svg viewBox="0 0 64 64" xml:space="preserve" xmlns="http://www.w3.org/2000/svg" enable-background="new 0 0 64 64"><path d="M59.291 19H38.414l-2-2h-8.828l-2 2H4.709a3.713 3.713 0 0 0-3.625 4.497l3.227 14.839C5.402 43.356 9.923 47 15.06 47h33.88c5.137 0 9.657-3.644 10.749-8.663l3.227-14.841A3.713 3.713 0 0 0 59.291 19zm1.67 4.072-3.227 14.84C56.842 42.019 53.144 45 48.94 45H15.06c-4.203 0-7.901-2.981-8.794-7.089L3.039 23.072A1.711 1.711 0 0 1 4.709 21h21.705l2-2h7.172l2 2h21.705a1.711 1.711 0 0 1 1.67 2.072z" fill="#ffffff" class="fill-000000"></path><path d="M33.586 25h-3.172l-2-2H5.069l3.15 14.486C8.914 40.682 11.79 43 15.06 43h33.88c3.269 0 6.146-2.318 6.841-5.513L58.931 23H35.586l-2 2zM51 35.007h-2V31h2v4.007zM53 31h2.144l-.871 4.007H53V31zm-2 9.531a4.929 4.929 0 0 1-2 .464v-3.988h2v3.524zM27 29h-2v-4h2v4zm16 6.007h-2V31h2v4.007zM45 31h2v4.007h-2V31zm-6 4.007h-2V31h2v4.007zm-4 0h-2V31h2v4.007zm-4 0h-2V31h2v4.007zm-4 0h-2V31h2v4.007zM21 31h2v4.007h-2V31zm-2 4.007h-2V31h2v4.007zM23 29h-2v-4h2v4zm-4 0h-2v-4h2v4zm-4 0h-2v-4h2v4zm0 2v4.007h-2V31h2zm-2 6.007h2v3.988a4.929 4.929 0 0 1-2-.464v-3.524zm4 0h2V41h-2v-3.993zm4 0h2V41h-2v-3.993zm4 0h2V41h-2v-3.993zm4 0h2V41h-2v-3.993zm4 0h2V41h-2v-3.993zm4 0h2V41h-2v-3.993zm4 0h2V41h-2v-3.993zm4 0h2V41h-2v-3.993zM49 29v-4h2v4h-2zm-2 0h-2v-4h2v4zm-4 0h-2v-4h2v4zm-4 0h-2v-4h2v4zm-4.586-2 .586-.586V29h-2v-2h1.414zM31 27v2h-2v-2.586l.586.586H31zm-20-2v4H8.422l-.87-4H11zm-2.143 6H11v7.881a4.919 4.919 0 0 1-.825-1.82L8.857 31zM53 38.882v-1.875h.838l-.012.055a4.92 4.92 0 0 1-.826 1.82zM55.579 29H53v-4h3.448l-.869 4z" fill="#ffffff" class="fill-000000"></path></svg>