<svg xmlns="http://www.w3.org/2000/svg" fill="none" height="32" viewBox="0 0 32 32" width="32"><path clip-rule="evenodd" d="M32 3.26525C30.3393 3.43369 28.7158 3.70698 26.9395 4.14863C24.3108 4.80223 20.6082 6.60201 16.3276 9.27142C12.1885 5.18879 9.37304 2.99937 4.02421 1.05435C3.63494 0.912792 3.20461 1.11361 3.06306 1.50288C2.9215 1.89216 3.12232 2.32248 3.5116 2.46404C7.10375 3.77027 9.47463 5.17073 11.994 7.29892L7.45883 11.834C5.18858 12.408 3.28107 13.3354 1.33051 15.1156C0.433633 15.9341 0 17.1282 0 18.3424C0 18.8658 0.143374 19.409 0.289404 19.9623C0.440946 20.5364 0.595349 21.1213 0.595349 21.7063C0.582329 21.8537 0.466398 21.998 0.340249 22.155C0.178522 22.3562 0 22.5784 0 22.8549V23.0035C0 23.5558 0.447715 24.0035 1 24.0035H6.0714C6.55815 27.3941 9.47476 30 13 30C16.5252 30 19.4419 27.3941 19.9286 24.0035H32V11H18C24.1377 6.83619 27.6013 4.90648 32 4.261V3.26525ZM12.7512 7.95592L9.24695 11.4601C10.6144 11.2241 12.1233 11.0575 13.8419 10.8763C14.2412 10.61 14.6367 10.3503 15.028 10.0971C14.2255 9.31038 13.4769 8.60143 12.7512 7.95592ZM10 13C6.23939 13.112 4.45037 13.874 2 16.2C2.66333 16.7141 3.0566 17 4.11321 17C6.19287 17 7.44368 15.6648 8.75356 14.2666C9.15498 13.8381 9.56194 13.4037 10 13ZM30.9993 13.2771C31.025 13.5242 30.3747 13.8244 29.5467 13.9475C28.7187 14.0705 28.0265 13.97 28.0007 13.7229C27.975 13.4758 28.6253 13.1756 29.4533 13.0525C30.2813 12.9295 30.9735 13.03 30.9993 13.2771ZM2 22.0048C2 21.5926 2.375 21.3828 2.75 21.2585C2.78044 21.2484 2.82306 21.2322 2.8743 21.2129C3.22971 21.0785 4 20.7872 4 21.2585V22.0048C4 22.417 3.75 22.6268 3.25 22.7512L2.30945 22.9852C2.26996 22.995 2.22882 23.0024 2.18932 22.9926C2.08057 22.9656 2 22.8678 2 22.7512V22.0048ZM14.7375 27.6898C14.1963 27.8904 13.611 28 13 28C12.389 28 11.8037 27.8904 11.2625 27.6898L12.17 26.2864C12.5595 25.6842 13.4405 25.6842 13.83 26.2864L14.7375 27.6898ZM15.356 27.4113C16.4388 26.8317 17.2834 25.8652 17.7048 24.6965L15.854 24.5123C15.1403 24.4413 14.591 25.1302 14.819 25.8102L15.356 27.4113ZM17.8804 24.0919C17.9587 23.7404 18 23.375 18 23C18 22.0066 17.7103 21.0809 17.2108 20.3027L15.7289 21.8237C15.2284 22.3374 15.4245 23.1964 16.0983 23.4421L17.8804 24.0919ZM16.8795 19.8455L15.0445 20.9655C14.4323 21.3391 13.6385 20.9568 13.5489 20.2452L13.2671 18.007C14.7238 18.0837 16.0152 18.7838 16.8795 19.8455ZM12.7329 18.007C11.2762 18.0837 9.98481 18.7838 9.12049 19.8455L10.9555 20.9655C11.5677 21.3391 12.3616 20.9568 12.4511 20.2452L12.7329 18.007ZM8.7892 20.3027C8.28969 21.0809 8 22.0066 8 23C8 23.375 8.04129 23.7404 8.11957 24.0919L9.90171 23.4421C10.5755 23.1964 10.7716 22.3374 10.2711 21.8237L8.7892 20.3027ZM8.29516 24.6965C8.71665 25.8652 9.56121 26.8317 10.644 27.4113L11.181 25.8102C11.409 25.1302 10.8597 24.4413 10.146 24.5123L8.29516 24.6965ZM14 23C14 23.5523 13.5523 24 13 24C12.4477 24 12 23.5523 12 23C12 22.4477 12.4477 22 13 22C13.5523 22 14 22.4477 14 23Z" fill="#ffffff" fill-rule="evenodd"/></svg>