<svg viewBox="0 0 50 50" xml:space="preserve" xmlns="http://www.w3.org/2000/svg"><path d="M28.5 1.3c-1.2-.7-2.7 0-3 1.4-1.1 6.7-4.4 22-11.7 26.9 1.3.6 2.6 1.5 3.8 2.7 1.2 1.2 2.1 2.5 2.7 3.8.9-1.3 2.1-2.5 3.6-3.6-.4 1.6.1 3.4 1.3 4.6 1.9 1.9 5.1 1.9 7 0 1.9-1.9 1.9-5.1 0-7-.5-.5-1.2-.9-1.8-1.2 6-2.5 12.9-3.9 16.8-4.6 1.4-.2 2.2-1.7 1.5-2.9-5-8.5-12-15.2-20.2-20.1zm1.9 34c-.9.9-2.4.9-3.3 0-.9-.9-.9-2.4 0-3.3.9-.9 2.4-.9 3.3 0 1 .9 1 2.4 0 3.3zM3.6 34c-3.4 3.4-3.4 9 0 12.5 3.4 3.4 9 3.4 12.4 0 3.4-3.4 3.4-9 0-12.5s-9-3.5-12.4 0zm4.7 4.7c-.9.9-2.4.9-3.3 0s-.9-2.4 0-3.3 2.4-.9 3.3 0 .9 2.4 0 3.3z" fill="#ffffff" class="fill-000000"></path></svg>