<svg viewBox="0 0 512 512" xml:space="preserve" xmlns="http://www.w3.org/2000/svg"><path fill="none" d="M0 0h512v512H0z"></path><path d="M295.344 496C444 496 463.328 384.672 439.734 256c-7.203 27.406-21.734 51.5-45.844 62.219C443.5 216 395.75 137.609 320 112c34.5 49.922 8.75 83.578-15.234 80.797-25.875-3-46.563-24.109-25.063-60.438C312.656 76.672 313.328 35.328 256 16c23.422 75.375-120.906 99.813-107.047 241.203-14.359-3.39-36.75-46.531-20.953-81.203-41.844 11.328-102 116-28.656 207.156C78.5 379.469 59.578 371.016 48 352c2 83.328 56.656 140 180.797 144C165.328 434.672 199 360.5 224 337c-7.5 31.5 4.5 81.5 32 96-22-66.5 40-79-16-161 100 39.328 90 180 55.344 224z" fill="#ffffff" class="fill-737373"></path></svg>