<svg viewBox="0 0 64 64" xml:space="preserve" xmlns="http://www.w3.org/2000/svg" enable-background="new 0 0 64 64"><circle cx="26.191" cy="9.62" r="1.72" fill="#ffffff" class="fill-202020"></circle><circle cx="32.994" cy="10.942" r="1.713" fill="#ffffff" class="fill-202020"></circle><circle cx="39.797" cy="12.265" r="1.711" fill="#ffffff" class="fill-202020"></circle><circle cx="46.6" cy="13.586" r="1.714" fill="#ffffff" class="fill-202020"></circle><circle cx="53.402" cy="14.908" r="1.72" fill="#ffffff" class="fill-202020"></circle><circle cx="10.867" cy="49.085" r="1.719" fill="#ffffff" class="fill-202020"></circle><circle cx="17.669" cy="50.408" r="1.714" fill="#ffffff" class="fill-202020"></circle><circle cx="24.472" cy="51.729" r="1.711" fill="#ffffff" class="fill-202020"></circle><circle cx="31.274" cy="53.051" r="1.714" fill="#ffffff" class="fill-202020"></circle><circle cx="38.077" cy="54.373" r="1.72" fill="#ffffff" class="fill-202020"></circle><circle cx="10.333" cy="20.741" r="1.719" fill="#ffffff" class="fill-202020"></circle><circle cx="17.432" cy="22.139" r="1.715" fill="#ffffff" class="fill-202020"></circle><circle cx="24.532" cy="23.536" r="1.712" fill="#ffffff" class="fill-202020"></circle><circle cx="31.631" cy="24.933" r="1.711" fill="#ffffff" class="fill-202020"></circle><circle cx="38.731" cy="26.329" r="1.713" fill="#ffffff" class="fill-202020"></circle><circle cx="45.831" cy="27.726" r="1.715" fill="#ffffff" class="fill-202020"></circle><circle cx="52.93" cy="29.123" r="1.72" fill="#ffffff" class="fill-202020"></circle><circle cx="10.333" cy="34.876" r="1.719" fill="#ffffff" class="fill-202020"></circle><circle cx="17.432" cy="36.273" r="1.715" fill="#ffffff" class="fill-202020"></circle><circle cx="24.532" cy="37.671" r="1.712" fill="#ffffff" class="fill-202020"></circle><circle cx="31.631" cy="39.067" r="1.711" fill="#ffffff" class="fill-202020"></circle><circle cx="38.731" cy="40.465" r="1.712" fill="#ffffff" class="fill-202020"></circle><circle cx="45.831" cy="41.862" r="1.715" fill="#ffffff" class="fill-202020"></circle><circle cx="52.93" cy="43.259" r="1.719" fill="#ffffff" class="fill-202020"></circle><path transform="rotate(10.948 39.542 12.272)" d="M21.274 8.586h36.528v7.368H21.274z" fill="none" stroke="#ffffff" stroke-width="2" stroke-linecap="round" stroke-linejoin="round" stroke-miterlimit="10" class="stroke-202020"></path><path transform="rotate(10.948 24.475 51.735)" d="M6.208 48.045h36.528v7.368H6.208z" fill="none" stroke="#ffffff" stroke-width="2" stroke-linecap="round" stroke-linejoin="round" stroke-miterlimit="10" class="stroke-202020"></path><path transform="rotate(10.948 31.998 24.929)" d="M6.059 21.246h51.882v7.37H6.059z" fill="none" stroke="#ffffff" stroke-width="2" stroke-linecap="round" stroke-linejoin="round" stroke-miterlimit="10" class="stroke-202020"></path><path transform="rotate(10.948 32.004 39.072)" d="M6.059 35.384h51.883v7.368H6.059z" fill="none" stroke="#ffffff" stroke-width="2" stroke-linecap="round" stroke-linejoin="round" stroke-miterlimit="10" class="stroke-202020"></path><path d="m56.77 19.356-29.666.877M38.264 15.776l-31.034.612M56.77 33.493l-29.666.875M38.343 29.913l-31.113.611M56.779 47.612l-29.665.875M38.269 44.032l-31.03.612" fill="none" stroke="#ffffff" stroke-width="2" stroke-linecap="round" stroke-linejoin="round" stroke-miterlimit="10" class="stroke-202020"></path></svg>