<svg width="85" height="51" viewBox="0 0 85 51" fill="none" xmlns="http://www.w3.org/2000/svg">
<path d="M0 12.1602V37.9291H85V12.1602H0ZM17.5146 35.4169C17.4211 35.4478 17.3431 35.4478 17.2495 35.4478C16.7192 35.4478 16.2357 35.0933 16.111 34.5539L14.9413 29.5758H11.011L9.93485 34.3535C9.79454 34.9855 9.15504 35.3708 8.53115 35.232C7.90735 35.0933 7.50183 34.4768 7.64224 33.8603L11.5257 16.8145C11.666 16.1518 12.2587 15.6895 12.9293 15.6895C13.6156 15.6895 14.1926 16.1518 14.3486 16.8145L18.388 34.0298C18.5285 34.6618 18.1385 35.2783 17.5146 35.4169ZM31.1927 35.4169C31.0991 35.4478 31.0055 35.4478 30.9276 35.4478C30.3972 35.4478 29.9137 35.0933 29.789 34.5539L28.6192 29.5758H24.689L23.6129 34.3535C23.4568 34.9855 22.8331 35.3708 22.2092 35.232C21.5854 35.0933 21.1798 34.4768 21.3202 33.8603L25.2036 16.8145C25.344 16.1518 25.9367 15.6895 26.6073 15.6895C27.2936 15.6895 27.8706 16.1518 28.0266 16.8145L32.0661 34.0298C32.2065 34.6618 31.8166 35.2783 31.1927 35.4169ZM46.1651 27.0636H35.2477C34.6083 27.0636 34.0779 26.5396 34.0779 25.9077C34.0779 25.2604 34.6083 24.7518 35.2477 24.7518H46.1651C46.8202 24.7518 47.3348 25.2604 47.3348 25.9077C47.3348 26.5396 46.8202 27.0636 46.1651 27.0636ZM58.2055 35.6327C53.9789 35.6327 50.8285 30.146 50.8285 25.2604C50.8285 20.2977 53.9478 14.7494 58.1432 14.7494C62.3385 14.7494 65.4578 20.2977 65.4578 25.2604C65.4578 30.1615 62.4789 35.6327 58.2055 35.6327ZM77.389 34.0452C77.389 34.6772 76.8588 35.2012 76.2193 35.2012C75.5642 35.2012 75.0495 34.6772 75.0495 34.0452V18.5407C70.6046 24.5669 70.5266 24.5976 70.1055 24.7364C69.4972 24.9522 68.8266 24.6285 68.6082 24.0274C68.4523 23.5805 68.5926 23.1027 68.9358 22.7944C69.123 22.5786 70.0743 21.3766 74.7065 15.073C75.0808 14.5644 75.7358 14.3332 76.3441 14.5336C76.9679 14.7339 77.389 15.3042 77.389 15.936V34.0452Z" fill="white"/>
<path d="M77.9348 0H7.06518C3.1661 0 0 3.12861 0 6.98163V9.84835H85V6.98163C85 3.12861 81.8339 0 77.9348 0ZM11.3073 8.18381C9.84128 8.18381 8.64033 6.99705 8.64033 5.54831C8.64033 4.08415 9.84128 2.89748 11.3073 2.89748C12.789 2.89748 13.9743 4.08415 13.9743 5.54831C13.9743 6.99705 12.789 8.18381 11.3073 8.18381ZM35.9028 6.70422H17.811C17.156 6.70422 16.6413 6.18026 16.6413 5.54831C16.6413 4.90103 17.156 4.39241 17.811 4.39241H35.9028C36.5578 4.39241 37.0725 4.90103 37.0725 5.54831C37.0725 6.18026 36.5578 6.70422 35.9028 6.70422ZM42.7963 8.18381C41.3147 8.18381 40.1293 6.99705 40.1293 5.54831C40.1293 4.08415 41.3147 2.89748 42.7963 2.89748C44.2624 2.89748 45.4633 4.08415 45.4633 5.54831C45.4633 6.99705 44.2624 8.18381 42.7963 8.18381ZM67.2826 6.70422H49.1908C48.5358 6.70422 48.0211 6.18026 48.0211 5.54831C48.0211 4.90103 48.5358 4.39241 49.1908 4.39241H67.2826C67.9376 4.39241 68.4523 4.90103 68.4523 5.54831C68.4523 6.18026 67.9376 6.70422 67.2826 6.70422ZM73.677 8.18381C72.211 8.18381 71.0101 6.99705 71.0101 5.54831C71.0101 4.08415 72.211 2.89748 73.677 2.89748C75.1587 2.89748 76.3441 4.08415 76.3441 5.54831C76.3441 6.99705 75.1587 8.18381 73.677 8.18381Z" fill="white"/>
<path d="M0 40.241V43.1076C0 46.9606 3.1661 50.0893 7.06518 50.0893H77.9348C81.8339 50.0893 85 46.9606 85 43.1076V40.241H0ZM11.3073 47.1918C9.84128 47.1918 8.64033 46.0051 8.64033 44.5409C8.64033 43.0922 9.84128 41.9055 11.3073 41.9055C12.789 41.9055 13.9743 43.0922 13.9743 44.5409C13.9743 46.0051 12.789 47.1918 11.3073 47.1918ZM35.9028 45.6968H17.811C17.156 45.6968 16.6413 45.1883 16.6413 44.5409C16.6413 43.909 17.156 43.385 17.811 43.385H35.9028C36.5578 43.385 37.0725 43.909 37.0725 44.5409C37.0725 45.1883 36.5578 45.6968 35.9028 45.6968ZM42.7963 47.1918C41.3147 47.1918 40.1293 46.0051 40.1293 44.5409C40.1293 43.0922 41.3147 41.9055 42.7963 41.9055C44.2624 41.9055 45.4633 43.0922 45.4633 44.5409C45.4633 46.0051 44.2624 47.1918 42.7963 47.1918ZM67.2826 45.6968H49.1908C48.5358 45.6968 48.0211 45.1883 48.0211 44.5409C48.0211 43.909 48.5358 43.385 49.1908 43.385H67.2826C67.9376 43.385 68.4523 43.909 68.4523 44.5409C68.4523 45.1883 67.9376 45.6968 67.2826 45.6968ZM73.677 47.1918C72.211 47.1918 71.0101 46.0051 71.0101 44.5409C71.0101 43.0922 72.211 41.9055 73.677 41.9055C75.1587 41.9055 76.3441 43.0922 76.3441 44.5409C76.3441 46.0051 75.1587 47.1918 73.677 47.1918Z" fill="white"/>
<path d="M14.3954 27.264H11.5413L12.9449 21.0837L14.3954 27.264Z" fill="white"/>
<path d="M28.0734 27.264H25.2192L26.6229 21.0837L28.0734 27.264Z" fill="white"/>
<path d="M63.1183 25.2604C63.1183 29.3292 60.6853 33.3209 58.2055 33.3209C55.7101 33.3209 53.1679 29.2521 53.1679 25.2604C53.1679 21.1916 55.6789 17.0612 58.1432 17.0612C60.6073 17.0612 63.1183 21.1916 63.1183 25.2604Z" fill="white"/>
</svg>
