<svg viewBox="0 0 64 64" xmlns="http://www.w3.org/2000/svg"><circle cx="50" cy="33" r="2" fill="#ffffff" class="fill-000000"></circle><path d="M23.721 35h16.558l1.333-4H22.387l1.334 4z" fill="#ffffff" class="fill-000000"></path><circle cx="14" cy="33" r="2" fill="#ffffff" class="fill-000000"></circle><path d="M59 23h-6a1 1 0 0 0-.707.293L50.586 25H13.414l-1.707-1.707A1 1 0 0 0 11 23H5a1 1 0 0 0-1 1c0 .327.032 8.07 2.837 14.153A4.967 4.967 0 0 0 11.354 41h41.293a4.964 4.964 0 0 0 4.515-2.847C59.968 32.07 60 24.327 60 24a1 1 0 0 0-1-1ZM14 37a4 4 0 1 1 4-4 4.004 4.004 0 0 1-4 4Zm29.948-6.684-2 6A.999.999 0 0 1 41 37H23a1 1 0 0 1-.949-.684l-2-6A1 1 0 0 1 21 29h22a.999.999 0 0 1 .948 1.316ZM50 37a4 4 0 1 1 4-4 4.004 4.004 0 0 1-4 4Z" fill="#ffffff" class="fill-000000"></path></svg>