<svg width="63" height="68" viewBox="0 0 63 68" fill="none" xmlns="http://www.w3.org/2000/svg">
<path d="M55.3526 46.7402C56.1776 46.7402 56.8461 46.0709 56.8461 45.2467V41.7567H59.2284C60.0549 41.7567 60.7234 41.0874 60.7234 40.2617V35.788C60.7234 34.9616 60.0541 34.293 59.2284 34.293H56.8461V31.9543C56.8461 31.1294 56.1768 30.4601 55.3526 30.4601H43.5289L48.2469 29.2501C48.6658 29.1418 49.0185 28.8583 49.2118 28.4703L57.5199 11.8563C57.5349 11.8247 57.5334 11.7931 57.5455 11.7608L58.581 12.2586C58.7893 12.3601 59.0096 12.4075 59.2269 12.4075C59.7842 12.4075 60.3181 12.0947 60.5768 11.56C60.9355 10.8148 60.6211 9.92289 59.8759 9.56419L40.281 0.148362C39.5395 -0.210343 38.6439 0.103994 38.2852 0.847725C37.9287 1.59296 38.2416 2.48483 38.986 2.84354L40.4517 3.54817L32.1436 19.9268C31.9262 20.3554 31.9277 20.8638 32.1511 21.2924L35.4208 27.5792L34.1604 30.4601H24.0618C23.2369 30.4601 22.5676 31.1301 22.5676 31.9543V33.2274H18.5233C17.6968 33.2274 17.0283 33.8967 17.0283 34.7232V41.3694C17.0283 42.1966 17.6976 42.8651 18.5233 42.8651H22.5676V44.415C22.5676 45.2414 23.2369 45.91 24.0618 45.91H29.4898V47.7381C29.4898 49.1782 30.5892 51.9786 34.8621 52.2779H38.6213C39.0236 53.4337 39.1974 55.2995 38.8424 56.7899C38.6574 57.5735 38.3438 58.1435 37.9821 58.3541C37.27 58.7707 37.0301 59.6866 37.4467 60.4003C37.7257 60.8763 38.2258 61.1395 38.7394 61.1395C38.9966 61.1395 39.256 61.0726 39.4944 60.9357C40.5863 60.295 41.3676 59.1016 41.7519 57.481C42.1362 55.8672 42.0941 53.9203 41.7196 52.2779H42.2039L47.0746 63.0458C47.8048 64.6055 49.9487 67.142 53.3425 67.142C53.9148 67.142 54.5217 67.0691 55.1609 66.9089C55.3331 66.8675 55.4947 66.7938 55.6414 66.6946L61.7341 62.5413C62.3823 62.0991 62.5786 61.2283 62.1816 60.5499L54.0855 46.7402H55.3526ZM56.8476 37.283H57.7335V38.7667H56.8476V37.283ZM22.5661 39.8744H20.019V36.2189H22.5661V39.8744ZM42.2008 25.0321C41.7812 25.0321 41.3834 24.7952 41.1954 24.3907C40.9367 23.8364 41.1796 23.1769 41.7339 22.9197L45.2622 21.2826L50.7631 10.4109C51.0399 9.86499 51.7039 9.6439 52.2514 9.92139C52.7981 10.1989 53.0169 10.8651 52.7402 11.4096L47.0633 22.625C46.9513 22.8468 46.7663 23.025 46.5414 23.1296L42.6648 24.9291C42.5144 24.9998 42.3565 25.0321 42.2008 25.0321Z" fill="white"/>
<path d="M8.78343 32.6695L8.87667 32.7289C9.12559 32.886 9.40157 32.962 9.67605 32.962C10.1709 32.962 10.6559 32.7161 10.9402 32.2656C11.3823 31.5685 11.174 30.6451 10.4762 30.2029L10.3829 30.1435C9.68508 29.7028 8.76011 29.9089 8.31944 30.6075C7.87801 31.3038 8.08632 32.2273 8.78343 32.6695Z" fill="white"/>
<path d="M15.2461 33.2139L15.1513 33.1545C14.4535 32.7161 13.53 32.9289 13.0908 33.629C12.6524 34.3306 12.8652 35.2518 13.5654 35.6895L13.6594 35.7497C13.906 35.9038 14.1797 35.9768 14.4505 35.9768C14.949 35.9768 15.4363 35.7279 15.7198 35.2744C16.159 34.5743 15.9469 33.6516 15.2461 33.2139Z" fill="white"/>
<path d="M4.00666 29.6547L4.10142 29.7141C4.34883 29.8705 4.62631 29.9457 4.89929 29.9457C5.39561 29.9457 5.87915 29.6998 6.16491 29.2509C6.60558 28.5538 6.39878 27.6303 5.70093 27.1874L5.60617 27.128C4.90982 26.6873 3.98486 26.8941 3.54268 27.5919C3.10201 28.2891 3.30881 29.2125 4.00666 29.6547Z" fill="white"/>
<path d="M3.54268 48.1494C3.82769 48.5984 4.31198 48.8443 4.8083 48.8443C5.08128 48.8443 5.35876 48.7698 5.60617 48.6134L5.70093 48.5532C6.39803 48.1118 6.60558 47.1884 6.16491 46.4905C5.72273 45.7927 4.79777 45.5866 4.10142 46.0265L4.00666 46.0859C3.30881 46.5274 3.10201 47.4516 3.54268 48.1494Z" fill="white"/>
<path d="M8.31944 45.1324C8.6037 45.5836 9.08874 45.8287 9.58356 45.8287C9.85804 45.8287 10.134 45.7528 10.3829 45.5964L10.4762 45.537C11.174 45.0948 11.3823 44.1713 10.9402 43.4742C10.498 42.7764 9.57453 42.5696 8.87667 43.0102L8.78343 43.0696C8.08632 43.5111 7.87801 44.4345 8.31944 45.1324Z" fill="white"/>
<path d="M14.361 42.8125C14.6317 42.8125 14.9062 42.738 15.1521 42.5839L15.2468 42.526C15.9469 42.0883 16.159 41.1641 15.7213 40.4655C15.2822 39.7646 14.3587 39.5533 13.6609 39.991L13.5669 40.0489C12.8667 40.4865 12.6547 41.4107 13.0923 42.1093C13.3751 42.5636 13.8616 42.8125 14.361 42.8125Z" fill="white"/>
<path d="M11.5673 39.5202C12.3937 39.5202 13.0344 38.8509 13.0344 38.0245C13.0344 37.1988 12.3381 36.5295 11.5124 36.5295C10.6859 36.5295 10.0167 37.1995 10.0167 38.0245C10.0167 38.8517 10.6859 39.5202 11.5124 39.5202H11.5673Z" fill="white"/>
<path d="M6.5808 39.5202C7.40725 39.5202 8.07578 38.8509 8.07578 38.0245C8.07578 37.1988 7.4065 36.5295 6.5808 36.5295H6.48229C5.65583 36.5295 4.9873 37.1995 4.9873 38.0245C4.9873 38.8517 5.65659 39.5202 6.48229 39.5202H6.5808Z" fill="white"/>
<path d="M0 38.0245C0 38.8517 0.669282 39.5202 1.49498 39.5202H1.55063C2.37708 39.5202 3.01854 38.8509 3.01854 38.0245C3.01854 37.1988 2.32143 36.5295 1.49498 36.5295C0.66853 36.5295 0 37.1988 0 38.0245Z" fill="white"/>
</svg>
