<svg xmlns="http://www.w3.org/2000/svg" xmlns:cc="http://creativecommons.org/ns#" xmlns:dc="http://purl.org/dc/elements/1.1/" xmlns:inkscape="http://www.inkscape.org/namespaces/inkscape" xmlns:rdf="http://www.w3.org/1999/02/22-rdf-syntax-ns#" xmlns:sodipodi="http://sodipodi.sourceforge.net/DTD/sodipodi-0.dtd" xmlns:svg="http://www.w3.org/2000/svg" xmlns:xlink="http://www.w3.org/1999/xlink" height="32" id="svg2" overflow="visible" style="fill-rule:evenodd;stroke-width:0.50099999;stroke-linejoin:bevel;overflow:visible" version="1.1" viewBox="0 0 25.600005 25.600001" width="32"><script id="script3301" xlink:href="" fill="#ffffff"/><script id="script3299" xlink:href="" fill="#ffffff"/><defs id="defs4" fill="#ffffff"><marker id="DefaultArrow2" markerHeight="1" markerUnits="strokeWidth" markerWidth="1" orient="auto" overflow="visible" style="overflow:visible" viewBox="0 0 1 1" fill="#ffffff"><g id="g7" transform="scale(0.00925926,0.00925926)"><path d="M -9,54 -9,-54 117,0 z" id="path9" fill="#ffffff"/></g></marker><marker id="DefaultArrow3" markerHeight="1" markerUnits="strokeWidth" markerWidth="1" orient="auto" overflow="visible" style="overflow:visible" viewBox="0 0 1 1" fill="#ffffff"><g id="g12" transform="scale(0.00925926,0.00925926)"><path d="M -27,54 -9,0 -27,-54 135,0 z" id="path14" fill="#ffffff"/></g></marker><marker id="DefaultArrow4" markerHeight="1" markerUnits="strokeWidth" markerWidth="1" orient="auto" overflow="visible" style="overflow:visible" viewBox="0 0 1 1" fill="#ffffff"><g id="g17" transform="scale(0.00925926,0.00925926)"><path d="M -9,0 -9,-45 C -9,-51.708 2.808,-56.58 9,-54 L 117,-9 C 120.916,-7.369 126,-4.242 126,0 126,4.242 120.916,7.369 117,9 L 9,54 C 2.808,56.58 -9,51.708 -9,45 z" id="path19" fill="#ffffff"/></g></marker><marker id="DefaultArrow5" markerHeight="1" markerUnits="strokeWidth" markerWidth="1" orient="auto" overflow="visible" style="overflow:visible" viewBox="0 0 1 1" fill="#ffffff"><g id="g22" transform="scale(0.00925926,0.00925926)"><path d="M -54,0 C -54,29.807 -29.807,54 0,54 29.807,54 54,29.807 54,0 54,-29.807 29.807,-54 0,-54 -29.807,-54 -54,-29.807 -54,0 z" id="path24" fill="#ffffff"/></g></marker><marker id="DefaultArrow6" markerHeight="1" markerUnits="strokeWidth" markerWidth="1" orient="auto" overflow="visible" style="overflow:visible" viewBox="0 0 1 1" fill="#ffffff"><g id="g27" transform="scale(0.00925926,0.00925926)"><path d="M -63,0 0,63 63,0 0,-63 z" id="path29" fill="#ffffff"/></g></marker><marker id="DefaultArrow7" markerHeight="1" markerUnits="strokeWidth" markerWidth="1" orient="auto" overflow="visible" style="overflow:visible" viewBox="0 0 1 1" fill="#ffffff"><g id="g32" transform="scale(0.00925926,0.00925926)"><path d="M 18,-54 108,-54 63,0 108,54 18,54 -36,0 z" id="path34" fill="#ffffff"/></g></marker><marker id="DefaultArrow8" markerHeight="1" markerUnits="strokeWidth" markerWidth="1" orient="auto" overflow="visible" style="overflow:visible" viewBox="0 0 1 1" fill="#ffffff"><g id="g37" transform="scale(0.00925926,0.00925926)"><path d="M -36,0 18,-54 54,-54 18,-18 27,-18 63,-54 99,-54 63,-18 72,-18 108,-54 144,-54 90,0 144,54 108,54 72,18 63,18 99,54 63,54 27,18 18,18 54,54 18,54 z" id="path39" fill="#ffffff"/></g></marker><marker id="DefaultArrow9" markerHeight="1" markerUnits="strokeWidth" markerWidth="1" orient="auto" overflow="visible" style="overflow:visible" viewBox="0 0 1 1" fill="#ffffff"><g id="g42" transform="scale(0.00925926,0.00925926)"><path d="M 0,45 -45,0 0,-45 45,0 z M 0,63 -63,0 0,-63 63,0 z" id="path44" fill="#ffffff"/></g></marker><filter color-interpolation-filters="sRGB" id="StainedFilter" fill="#ffffff"><feBlend id="feBlend47" in="SourceGraphic" in2="BackgroundImage" mode="multiply" result="blend" fill="#ffffff"/><feComposite id="feComposite49" in="blend" in2="SourceAlpha" operator="in" result="comp" fill="#ffffff"/></filter><filter color-interpolation-filters="sRGB" id="BleachFilter" fill="#ffffff"><feBlend id="feBlend52" in="SourceGraphic" in2="BackgroundImage" mode="screen" result="blend" fill="#ffffff"/><feComposite id="feComposite54" in="blend" in2="SourceAlpha" operator="in" result="comp" fill="#ffffff"/></filter><filter color-interpolation-filters="sRGB" id="InvertTransparencyBitmapFilter" fill="#ffffff"><feComponentTransfer id="feComponentTransfer57" fill="#ffffff"><feFuncR amplitude="1.055" exponent=".416666666" id="feFuncR59" offset="-0.055" type="gamma" fill="#ffffff"/><feFuncG amplitude="1.055" exponent=".416666666" id="feFuncG61" offset="-0.055" type="gamma" fill="#ffffff"/><feFuncB amplitude="1.055" exponent=".416666666" id="feFuncB63" offset="-0.055" type="gamma" fill="#ffffff"/></feComponentTransfer><feComponentTransfer id="feComponentTransfer65" fill="#ffffff"><feFuncR id="feFuncR67" intercept="1" slope="-1" type="linear" fill="#ffffff"/><feFuncG id="feFuncG69" intercept="1" slope="-1" type="linear" fill="#ffffff"/><feFuncB id="feFuncB71" intercept="1" slope="-1" type="linear" fill="#ffffff"/><feFuncA id="feFuncA73" intercept="0" slope="1" type="linear" fill="#ffffff"/></feComponentTransfer><feComponentTransfer id="feComponentTransfer75" fill="#ffffff"><feFuncR amplitude="1" exponent="2.4" id="feFuncR77" offset="0" type="gamma" fill="#ffffff"/><feFuncG amplitude="1" exponent="2.4" id="feFuncG79" offset="0" type="gamma" fill="#ffffff"/><feFuncB amplitude="1" exponent="2.4" id="feFuncB81" offset="0" type="gamma" fill="#ffffff"/></feComponentTransfer></filter><radialGradient cx="0" cy="0" gradientTransform="matrix(0,-1,0.886054,0,172.174,122.358)" gradientUnits="userSpaceOnUse" id="RadialGradient" r="237.42799" fill="#ffffff"><stop id="stop84" offset="0" stop-color="#ffffff" fill="#ffffff"/><stop id="stop86" offset="0.792135000228882" stop-color="#ffffff" fill="#ffffff"/><stop id="stop88" offset="0.990000009536743" stop-color="#ffffff" fill="#ffffff"/><stop id="stop90" offset="1" stop-color="#ffffff" fill="#ffffff"/></radialGradient><radialGradient cx="0" cy="0" gradientTransform="matrix(0,-1,0.886054,0,170.916,119.88)" gradientUnits="userSpaceOnUse" id="RadialGradient_1" r="237.42799" fill="#ffffff"><stop id="stop93" offset="0" stop-color="#ffffff" fill="#ffffff"/><stop id="stop95" offset="0.792135000228882" stop-color="#ffffff" fill="#ffffff"/><stop id="stop97" offset="0.990000009536743" stop-color="#ffffff" fill="#ffffff"/><stop id="stop99" offset="1" stop-color="#ffffff" fill="#ffffff"/></radialGradient><radialGradient cx="0" cy="0" gradientTransform="matrix(0,-1,0.886054,0,169.66,117.403)" gradientUnits="userSpaceOnUse" id="RadialGradient_2" r="237.42799" fill="#ffffff"><stop id="stop102" offset="0" stop-color="#ffffff" fill="#ffffff"/><stop id="stop104" offset="0.792135000228882" stop-color="#ffffff" fill="#ffffff"/><stop id="stop106" offset="0.990000009536743" stop-color="#ffffff" fill="#ffffff"/><stop id="stop108" offset="1" stop-color="#ffffff" fill="#ffffff"/></radialGradient><radialGradient cx="0" cy="0" gradientTransform="matrix(0,-1,0.886054,0,168.403,114.925)" gradientUnits="userSpaceOnUse" id="RadialGradient_3" r="237.42799" fill="#ffffff"><stop id="stop111" offset="0" stop-color="#ffffff" fill="#ffffff"/><stop id="stop113" offset="0.792135000228882" stop-color="#ffffff" fill="#ffffff"/><stop id="stop115" offset="0.990000009536743" stop-color="#ffffff" fill="#ffffff"/><stop id="stop117" offset="1" stop-color="#ffffff" fill="#ffffff"/></radialGradient><radialGradient cx="0" cy="0" gradientTransform="matrix(0,-1,0.886054,0,167.146,112.448)" gradientUnits="userSpaceOnUse" id="RadialGradient_4" r="237.42799" fill="#ffffff"><stop id="stop120" offset="0" stop-color="#ffffff" fill="#ffffff"/><stop id="stop122" offset="0.792135000228882" stop-color="#ffffff" fill="#ffffff"/><stop id="stop124" offset="0.990000009536743" stop-color="#ffffff" fill="#ffffff"/><stop id="stop126" offset="1" stop-color="#ffffff" fill="#ffffff"/></radialGradient><radialGradient cx="0" cy="0" gradientTransform="matrix(0,-1,0.886054,0,165.889,109.97)" gradientUnits="userSpaceOnUse" id="RadialGradient_5" r="237.42799" fill="#ffffff"><stop id="stop129" offset="0" stop-color="#ffffff" fill="#ffffff"/><stop id="stop131" offset="0.792135000228882" stop-color="#ffffff" fill="#ffffff"/><stop id="stop133" offset="0.990000009536743" stop-color="#ffffff" fill="#ffffff"/><stop id="stop135" offset="1" stop-color="#ffffff" fill="#ffffff"/></radialGradient><radialGradient cx="0" cy="0" gradientTransform="matrix(0,-1,0.886054,0,164.632,107.493)" gradientUnits="userSpaceOnUse" id="RadialGradient_6" r="237.42799" fill="#ffffff"><stop id="stop138" offset="0" stop-color="#ffffff" fill="#ffffff"/><stop id="stop140" offset="0.792135000228882" stop-color="#ffffff" fill="#ffffff"/><stop id="stop142" offset="0.990000009536743" stop-color="#ffffff" fill="#ffffff"/><stop id="stop144" offset="1" stop-color="#ffffff" fill="#ffffff"/></radialGradient><linearGradient gradientTransform="translate(218.601,165.399)" gradientUnits="userSpaceOnUse" id="LinearGradient" x1="0" x2="42.75" y1="0" y2="36.75" fill="#ffffff"><stop id="stop147" offset="0" stop-color="#ffffff" fill="#ffffff"/><stop id="stop149" offset="1" stop-color="#ffffff" fill="#ffffff"/></linearGradient><linearGradient gradientTransform="translate(181.122,157.792)" gradientUnits="userSpaceOnUse" id="LinearGradient_1" x1="0" x2="-9.6719999" y1="0" y2="-141.858" fill="#ffffff"><stop id="stop152" offset="0" stop-color="#ffffff" fill="#ffffff"/><stop id="stop154" offset="1" stop-color="#ffffff" fill="#ffffff"/></linearGradient><linearGradient gradientTransform="translate(259.851,172.899)" gradientUnits="userSpaceOnUse" id="LinearGradient_2" x1="0" x2="69.75" y1="0" y2="-189.75" fill="#ffffff"><stop id="stop157" offset="0" stop-color="#ffffff" fill="#ffffff"/><stop id="stop159" offset="1" stop-color="#ffffff" fill="#ffffff"/></linearGradient><linearGradient gradientTransform="translate(204.11,87.059)" gradientUnits="userSpaceOnUse" id="LinearGradient_3" x1="0" x2="-51.527" y1="0" y2="-64.410004" fill="#ffffff"><stop id="stop162" offset="0" stop-color="#ffffff" fill="#ffffff"/><stop id="stop164" offset="0.730337023735046" stop-color="#ffffff" fill="#ffffff"/><stop id="stop166" offset="0.990000009536743" stop-color="#ffffff" fill="#ffffff"/><stop id="stop168" offset="1" stop-color="#ffffff" fill="#ffffff"/></linearGradient><linearGradient gradientTransform="translate(199.945,96.333)" gradientUnits="userSpaceOnUse" id="LinearGradient_4" x1="0" x2="19.041" y1="0" y2="85.190002" fill="#ffffff"><stop id="stop171" offset="0" stop-color="#ffffff" fill="#ffffff"/><stop id="stop173" offset="0.792135000228882" stop-color="#ffffff" fill="#ffffff"/><stop id="stop175" offset="0.990000009536743" stop-color="#ffffff" fill="#ffffff"/><stop id="stop177" offset="1" stop-color="#ffffff" fill="#ffffff"/></linearGradient><linearGradient gradientTransform="translate(129.134,111.014)" gradientUnits="userSpaceOnUse" id="LinearGradient_5" x1="0" x2="-1.007" y1="0" y2="-63.535999" fill="#ffffff"><stop id="stop180" offset="0" stop-color="#ffffff" fill="#ffffff"/><stop id="stop182" offset="0.792135000228882" stop-color="#ffffff" fill="#ffffff"/><stop id="stop184" offset="0.990000009536743" stop-color="#ffffff" fill="#ffffff"/><stop id="stop186" offset="1" stop-color="#ffffff" fill="#ffffff"/></linearGradient><linearGradient gradientTransform="translate(129.286,104.867)" gradientUnits="userSpaceOnUse" id="LinearGradient_6" x1="0" x2="15.098" y1="0" y2="58.375" fill="#ffffff"><stop id="stop189" offset="0" stop-color="#ffffff" fill="#ffffff"/><stop id="stop191" offset="0.792135000228882" stop-color="#ffffff" fill="#ffffff"/><stop id="stop193" offset="0.990000009536743" stop-color="#ffffff" fill="#ffffff"/><stop id="stop195" offset="1" stop-color="#ffffff" fill="#ffffff"/></linearGradient><radialGradient cx="0" cy="0" gradientTransform="matrix(0.69735527,-0.71672563,1.2319152,1.1986212,183.351,196.899)" gradientUnits="userSpaceOnUse" id="RadialGradient_7" r="38.716999" fill="#ffffff"><stop id="stop198" offset="0" stop-color="#ffffff" fill="#ffffff"/><stop id="stop200" offset="1" stop-color="#ffffff" fill="#ffffff"/></radialGradient><radialGradient cx="0" cy="0" gradientTransform="matrix(0,-1,0.973942,0,134.346,314.993)" gradientUnits="userSpaceOnUse" id="RadialGradient_8" r="120.999" fill="#ffffff"><stop id="stop203" offset="0" stop-color="#ffffff" fill="#ffffff"/><stop id="stop205" offset="1.68539006263018E-02" stop-color="#ffffff" fill="#ffffff"/><stop id="stop207" offset="0.202246993780136" stop-color="#ffffff" fill="#ffffff"/><stop id="stop209" offset="1" stop-color="#ffffff" fill="#ffffff"/></radialGradient><radialGradient cx="0" cy="0" gradientTransform="matrix(-0.01429027,-0.99989789,1.2061368,-0.01723778,146.601,370.899)" gradientUnits="userSpaceOnUse" id="RadialGradient_9" r="87.054001" fill="#ffffff"><stop id="stop212" offset="0" stop-color="#ffffff" fill="#ffffff"/><stop id="stop214" offset="1" stop-color="#ffffff" fill="#ffffff"/></radialGradient><linearGradient gradientTransform="translate(213.351,257.649)" gradientUnits="userSpaceOnUse" id="LinearGradient_7" x1="0" x2="-54" y1="0" y2="-87" fill="#ffffff"><stop id="stop217" offset="0" stop-color="#ffffff" fill="#ffffff"/><stop id="stop219" offset="1" stop-color="#ffffff" fill="#ffffff"/></linearGradient><linearGradient gradientTransform="translate(133.101,343.149)" gradientUnits="userSpaceOnUse" id="LinearGradient_8" x1="0" x2="10.5" y1="0" y2="-85.5" fill="#ffffff"><stop id="stop222" offset="0" stop-color="#ffffff" fill="#ffffff"/><stop id="stop224" offset="1" stop-color="#ffffff" fill="#ffffff"/></linearGradient><linearGradient gradientTransform="translate(239.24,380.259)" gradientUnits="userSpaceOnUse" id="LinearGradient_9" x1="0" x2="3.5999999" y1="0" y2="-129" fill="#ffffff"><stop id="stop227" offset="0" stop-color="#ffffff" fill="#ffffff"/><stop id="stop229" offset="1" stop-color="#ffffff" fill="#ffffff"/></linearGradient><linearGradient gradientTransform="translate(115.007,352.336)" gradientUnits="userSpaceOnUse" id="LinearGradient_10" x1="0" x2="108" y1="0" y2="-33.75" fill="#ffffff"><stop id="stop232" offset="0" stop-color="#ffffff" fill="#ffffff"/><stop id="stop234" offset="1" stop-color="#ffffff" fill="#ffffff"/></linearGradient><linearGradient gradientTransform="translate(226.61,87.059)" gradientUnits="userSpaceOnUse" id="LinearGradient_11" x1="0" x2="-51.527" y1="0" y2="-64.410004" fill="#ffffff"><stop id="stop237" offset="0" stop-color="#ffffff" fill="#ffffff"/><stop id="stop239" offset="0.730337023735046" stop-color="#ffffff" fill="#ffffff"/><stop id="stop241" offset="0.990000009536743" stop-color="#ffffff" fill="#ffffff"/><stop id="stop243" offset="1" stop-color="#ffffff" fill="#ffffff"/></linearGradient></defs><g id="g3833" transform="matrix(0.64050442,0,0,0.64031522,1.6000003,25.600003)"><path d="M 0,-8.5441267 C 0,-9.9717572 1.475504,-10.549806 3.0242836,-9.3320721 3.7220671,-7.6912133 4.4464963,-6.0720105 6.7247011,-5.6888658 10.76152,-5.6888658 12.107127,-7.4963093 17.486221,-7.4963093 22.865316,-7.4963093 24.210922,-5.6888658 28.247742,-5.6888658 30.525946,-6.0720105 31.250376,-7.6912133 31.948159,-9.3320721 33.496939,-10.549806 34.972443,-9.9717572 34.972443,-8.5441267 34.972443,-2.8336049 32.28123,0 29.593348,0 L 5.3790947,0 C 2.6912127,0 0,-2.8336049 0,-8.5441267 z" id="path3835" style="fill:#ffffff;fill-opacity:1;fill-rule:evenodd;stroke:none"/><path d="M 4.9960632,-11.244464 C 4.9960632,-19.990158 5.9902798,-26.297053 8.5649177,-31.234622 8.9779256,-32.299098 9.7539808,-33.733392 12.133772,-33.733392 L 13.739174,-33.733392 13.739174,-34.982777 12.260339,-34.982777 C 11.51093,-34.977779 11.117906,-35.352595 11.276115,-36.232162 11.605855,-38.421084 12.431871,-39.980316 13.687548,-39.980316 L 21.284895,-39.980316 C 22.540572,-39.980316 23.366588,-38.421084 23.696328,-36.232162 23.854537,-35.352595 23.461513,-34.977779 22.712103,-34.982777 L 21.233269,-34.982777 21.233269,-33.733392 22.83867,-33.733392 C 25.218462,-33.733392 25.994517,-32.299098 26.407525,-31.234622 28.982163,-26.297053 29.976379,-19.990158 29.976379,-11.244464 29.976379,-8.7456942 27.596588,-7.4963093 26.407525,-7.4963093 26.142734,-7.5762699 25.879608,-7.6528989 25.616482,-7.7261961 25.991186,-8.2992473 26.24432,-9.0305539 26.24432,-9.9067892 26.24432,-16.122062 25.748045,-20.886384 24.467387,-24.736155 L 23.889509,-26.277063 C 23.614726,-27.163293 22.968568,-28.739184 20.973473,-28.739184 L 14.003965,-28.739184 C 12.017197,-28.739184 11.366044,-27.178286 11.084599,-26.277063 L 10.506721,-24.736155 C 9.2277288,-20.886384 8.7331185,-16.122062 8.7331185,-9.9067892 8.7331185,-9.0372173 8.979591,-8.3109082 9.350965,-7.7395229 9.0845083,-7.6612281 8.8230477,-7.5796016 8.5649177,-7.4963093 7.3758547,-7.4963093 4.9960632,-8.7456942 4.9960632,-11.244464 z M 24.297521,-8.0626971 C 19.40471,-9.1988044 14.695087,-9.0505441 10.654938,-8.0860189 10.290225,-8.475827 9.9821343,-9.0705342 9.9821343,-9.9067892 9.9821343,-16.963315 10.629957,-21.967518 12.258674,-25.860601 12.538453,-26.741834 12.901501,-27.489799 14.003965,-27.489799 L 20.973473,-27.489799 C 22.082599,-27.489799 22.442316,-26.726841 22.703777,-25.893918 24.345816,-21.967518 24.995304,-16.963315 24.995304,-9.9067892 24.995304,-9.0538758 24.672226,-8.4525052 24.297521,-8.0626971 z M 19.985918,-33.733392 19.985918,-34.982777 14.986524,-34.982777 14.986524,-33.733392 19.985918,-33.733392 z" id="path3837" style="fill:#ffffff;fill-opacity:1;fill-rule:evenodd;stroke:none"/></g></svg>