<svg viewBox="0 0 64 64" xml:space="preserve" xmlns="http://www.w3.org/2000/svg"><circle cx="32" cy="43.419" fill="#ffffff" r="7.045" class="fill-241f20"></circle><path d="M47.045 0H16.937c-2.865 0-5.175 2.326-5.175 5.19V64h40.476V5.19A5.195 5.195 0 0 0 47.045 0zM31.998 7.924c5.524 0 10.004 4.479 10.004 10.004S37.521 27.93 31.998 27.93s-10.003-4.478-10.003-10.002S26.474 7.924 31.998 7.924zm0 48.602c-7.071 0-12.805-5.731-12.805-12.806 0-7.071 5.734-12.806 12.805-12.806 7.075 0 12.805 5.735 12.805 12.806 0 7.075-5.731 12.806-12.805 12.806z" fill="#ffffff" class="fill-241f20"></path><path d="M37.611 18.144a5.61 5.61 0 0 1-11.222 0 5.61 5.61 0 1 1 11.222 0z" fill="#ffffff" class="fill-241f20"></path></svg>