<svg width="411" height="231" viewBox="0 0 411 231" fill="none" xmlns="http://www.w3.org/2000/svg">
<path d="M343.338 0.455759C341.254 0.713027 339.302 2.53594 338.391 5.40263C337.479 8.39429 334.613 21.9413 334.741 24.1538C334.874 27.2777 335.524 29.6225 336.697 31.7064C336.697 31.7064 338.387 31.5778 339.041 31.7064C343.856 31.9637 347.634 36.5247 351.151 40.821L379.928 75.8535C385.53 83.1452 380.061 90.4369 374.463 92.5208C374.463 92.5208 379.149 98.5114 381.494 102.029C384.361 106.715 390.352 106.457 394.909 100.728L407.541 84.0567C412.098 77.0259 409.625 74.8097 405.846 68.8191C405.846 68.8191 353.107 5.78855 347.373 1.88543C346.072 0.709351 344.639 0.323438 343.338 0.452072V0.455759ZM336.825 35.3523C336.175 35.3523 335.392 35.3523 334.741 35.4846C276.143 50.1966 212.33 66.7352 160.373 79.628C160.176 79.6605 159.995 79.7514 159.851 79.8889C157.638 80.4108 155.422 80.8004 153.21 81.4509C94.4792 96.1666 89.9219 94.9942 31.3163 109.453H31.1877C47.0758 136.017 70.2556 177.169 70.2556 177.169C70.3842 177.687 70.5129 177.948 70.6452 178.342C72.2072 177.948 114.792 165.184 140.185 157.764L150.604 200.217L137.711 202.822C135.238 203.212 133.154 207.251 137.193 209.596L153.21 218.71C157.116 221.316 159.59 222.095 165.059 220.662L208.166 208.03C210.639 207.773 212.201 202.561 207.905 200.478L194.101 193.708C189.8 191.624 188.11 192.017 184.725 192.925L173.394 147.87C220.798 133.809 234.991 129.641 278.227 116.748L288.121 156.334L274.192 159.723C271.714 160.112 270.02 163.89 274.059 166.103L290.337 175.089C294.372 177.562 296.585 178.345 302.057 176.651L344.9 163.369C347.377 162.979 348.939 157.507 344.642 155.555L330.577 149.042C326.538 147.22 324.715 147.48 321.72 148.263L311.561 106.851C328.1 101.9 367.039 90.4406 367.168 90.4406C377.977 87.4452 378.499 81.5832 374.982 77.2905L347.377 43.6914C344.121 39.7846 341.254 35.6169 336.829 35.3559L336.825 35.3523ZM12.5652 95.6484C10.0918 95.3875 7.35738 97.0818 5.7954 100.073C3.9688 103.197 1.49536 121.824 1.10578 124.426C0.322954 128.983 1.36305 133.283 2.66776 136.017C14.3918 165.838 25.7189 195.924 37.7002 225.613C40.1737 231.861 47.9873 232.254 53.0628 226.914C58.2743 220.144 63.2249 212.591 68.1717 205.428C72.6004 197.221 72.7291 195.137 69.7337 187.456C69.7337 187.456 22.4627 103.852 16.7329 98.1218C15.5605 96.5599 13.9986 95.777 12.5652 95.6484Z" fill="white"/>
</svg>
