<svg viewBox="0 0 431.848 431.844" xml:space="preserve" xmlns="http://www.w3.org/2000/svg"><path d="M215.924 187.086c-14.145 0-25.607 11.461-25.607 25.604 0 14.139 11.463 25.602 25.607 25.602 14.141 0 25.602-11.463 25.602-25.602-.001-14.143-11.462-25.604-25.602-25.604zM51.301 277.818c19.637 52.061 63.268 92.436 117.359 107.543 9.447 2.639 12.281-5.242 8.553-22.104-6.158-27.846-16.328-60.66-31.705-74.039-16.41-14.277-52.881-25.02-81.525-31.646-17.995-4.093-15.235 13.436-12.682 20.246zM0 215.924C0 96.863 96.863 0 215.924 0s215.924 96.863 215.924 215.924c0 119.059-96.863 215.92-215.924 215.92S0 334.982 0 215.924zm352.516-31.695c23.367 5.988 35.799-5.943 29.371-26.621C357.775 89.18 292.494 40 215.924 40S74.072 89.18 49.961 157.607c-6.428 20.678 6.004 32.609 29.371 26.621 39.139-10.107 86.098-21.885 136.592-21.885s97.453 11.778 136.592 21.886zm15.349 73.343c-28.645 6.627-65.115 17.369-81.525 31.646-15.377 13.379-25.547 46.193-31.705 74.039-3.729 16.861-.895 24.742 8.553 22.104 54.092-15.107 97.723-55.482 117.359-107.543 2.553-6.81 5.312-24.339-12.682-20.246zM73.574 214.949c-5.125 0-9.283 4.158-9.283 9.285 0 5.123 4.158 9.281 9.283 9.281 5.127 0 9.285-4.158 9.285-9.281 0-5.127-4.158-9.285-9.285-9.285zm46.418 0c-5.127 0-9.285 4.158-9.285 9.285 0 5.123 4.158 9.281 9.285 9.281 5.123 0 9.281-4.158 9.281-9.281 0-5.127-4.158-9.285-9.281-9.285zm191.856 0c-5.125 0-9.283 4.158-9.283 9.285 0 5.123 4.158 9.281 9.283 9.281s9.283-4.158 9.283-9.281c0-5.127-4.158-9.285-9.283-9.285zm46.418 0c-5.127 0-9.285 4.158-9.285 9.285 0 5.123 4.158 9.281 9.285 9.281 5.123 0 9.281-4.158 9.281-9.281 0-5.127-4.158-9.285-9.281-9.285z" fill="#ffffff" class="fill-000000"></path></svg>