<svg xmlns="http://www.w3.org/2000/svg" fill="none" height="32" viewBox="0 0 32 32" width="32"><path clip-rule="evenodd" d="M23.4067 12.044C22.6195 11.118 21.9406 10.3588 21.2304 9.63987L22.9803 2.64029C23.1897 2.4867 23.3984 2.34859 23.6055 2.22946C24.8238 1.52865 27.5988 1.84488 30.0518 2.1244C30.5057 2.17612 30.9485 2.22658 31.3684 2.26911C31.7081 2.30352 32 2.03522 32 1.69417V0.578723C31.053 0.5 30.1792 0.414097 29.3764 0.335178C26.2342 0.0262935 24.1804 -0.17561 23.0882 0.578722C21.375 1.76199 19.3613 4.05257 17.6706 6.07053C13.2848 5.39636 5.79927 5 0.590698 5C0.391212 5 0.194365 5.00015 0 5.00051V6H4.68159C4.84698 6 5.00167 6.08178 5.0948 6.21846L8.51948 11.2448C8.73461 11.5605 8.53047 11.9911 8.14986 12.0244L0 12.7375V26.0035H5.0714C5.55815 29.3941 8.47476 32 12 32C15.5252 32 18.4419 29.3941 18.9286 26.0035H21.5C23.433 26.0035 25 24.4365 25 22.5035V21.6758C25 21.1986 24.7729 20.7498 24.3883 20.4672L24.107 20.2604V13.9634C24.107 13.261 23.8617 12.5791 23.4067 12.044ZM20.4015 8.83259C19.8589 8.32412 19.2726 7.81166 18.5906 7.24804C18.7566 7.05272 18.9303 6.8456 19.1106 6.63063C19.8733 5.72138 20.7539 4.67153 21.665 3.77871L20.4015 8.83259ZM20.8294 14C20.3708 14 19.6964 14.1118 19.1488 14.4164C18.934 14.5358 18.9602 14.7909 19.1729 14.9129C20.0856 15.4364 20.8603 15.7654 22.0401 15.9843C22.5425 16.0776 23 15.7418 23 15.3101V15.0641C22.8858 14.1935 21.8576 14 20.8294 14ZM7 6L9.85815 6.10677C10.9955 6.14926 12.0843 6.5785 12.9447 7.32357L15 9.10345C13.3811 10.5539 12.2555 10.8576 10.0769 11L7 6ZM7.99926 14.2771C8.02504 14.5242 7.37469 14.8244 6.54667 14.9475C5.71865 15.0705 5.02652 14.97 5.00074 14.7229C4.97496 14.4758 5.62531 14.1756 6.45333 14.0525C7.28135 13.9295 7.97348 14.03 7.99926 14.2771ZM12 30C12.611 30 13.1963 29.8904 13.7375 29.6898L12.83 28.2864C12.4405 27.6842 11.5595 27.6842 11.17 28.2864L10.2625 29.6898C10.8037 29.8904 11.389 30 12 30ZM16.7048 26.6965C16.2834 27.8652 15.4388 28.8317 14.356 29.4112L13.819 27.8102C13.591 27.1302 14.1403 26.4413 14.854 26.5123L16.7048 26.6965ZM17 25C17 25.375 16.9587 25.7404 16.8804 26.0919L15.0983 25.4421C14.4245 25.1964 14.2284 24.3374 14.7289 23.8237L16.2108 22.3027C16.7103 23.0809 17 24.0066 17 25ZM14.0445 22.9655L15.8795 21.8455C15.0152 20.7838 13.7238 20.0837 12.2671 20.007L12.5489 22.2452C12.6385 22.9568 13.4323 23.3391 14.0445 22.9655ZM8.12049 21.8455C8.98481 20.7838 10.2762 20.0837 11.7329 20.007L11.4511 22.2452C11.3616 22.9568 10.5677 23.3391 9.95553 22.9655L8.12049 21.8455ZM7 25C7 24.0066 7.28969 23.0809 7.7892 22.3027L9.27109 23.8237C9.77159 24.3374 9.57553 25.1964 8.90171 25.4421L7.11957 26.0919C7.04129 25.7404 7 25.375 7 25ZM9.64401 29.4112C8.56121 28.8317 7.71665 27.8652 7.29516 26.6965L9.14598 26.5123C9.85966 26.4413 10.409 27.1302 10.181 27.8102L9.64401 29.4112ZM12 26C12.5523 26 13 25.5523 13 25C13 24.4477 12.5523 24 12 24C11.4477 24 11 24.4477 11 25C11 25.5523 11.4477 26 12 26Z" fill="#ffffff" fill-rule="evenodd"/></svg>