<svg width="58" height="58" viewBox="0 0 58 58" fill="none" xmlns="http://www.w3.org/2000/svg">
<path d="M29 0C12.9828 0 0 13.0025 0 29.0196C0 45.0368 12.9828 58 29 58C45.0172 58 58 45.0368 58 29.0196C58 13.0025 45.0172 0 29 0ZM29 10.2954C39.3337 10.2954 47.7242 18.686 47.7242 29.0196C47.7242 39.3532 39.3337 47.7046 29 47.7046C18.6663 47.7046 10.2758 39.3532 10.2758 29.0196C10.2758 18.686 18.6663 10.2954 29 10.2954ZM29 11.317C19.2347 11.317 11.2974 19.2543 11.2974 29.0196C11.2974 38.785 19.2347 46.6829 29 46.6829C38.7653 46.6829 46.7025 38.785 46.7025 29.0196C46.7025 19.2543 38.7653 11.317 29 11.317ZM24.6579 15.3645C24.651 15.4318 24.6381 15.4923 24.6381 15.5609V22.5752C23.2036 23.5518 22.1193 24.9886 21.5927 26.6816C21.5927 26.6884 21.5927 26.6952 21.5927 26.7013L14.775 30.6308C14.7138 30.0956 14.6768 29.5714 14.6768 29.0197C14.6768 22.6256 18.867 17.2017 24.6578 15.3646L24.6579 15.3645ZM33.3225 15.3645C39.1133 17.2016 43.3232 22.6255 43.3232 29.0196C43.3232 29.5601 43.2837 30.0864 43.2249 30.6111L36.4072 26.6619C35.8785 24.9767 34.7912 23.5483 33.3618 22.5752V15.5609C33.3618 15.4924 33.3271 15.4319 33.3223 15.3645H33.3225ZM24.3042 35.1694C25.6101 36.1663 27.2301 36.7608 29 36.7608C30.7699 36.7608 32.3899 36.1663 33.6958 35.1694L39.6097 38.5684C36.9874 41.4683 33.2191 43.3035 29 43.3035C24.7809 43.3035 21.0127 41.4683 18.3903 38.5684C18.3998 38.5616 18.4005 38.5752 18.41 38.5684L24.3043 35.1694H24.3042Z" fill="white"/>
</svg>
