<svg width="22" height="22" viewBox="0 0 22 22" fill="none" xmlns="http://www.w3.org/2000/svg">
<path d="M11 0C4.92507 0 0 4.92507 0 11C0 17.0749 4.92507 22 11 22C17.0749 22 22 17.0749 22 11C22 4.92507 17.0749 0 11 0ZM5.86667 5.39843L7.5603 4.76667H8.8V9.9H7.3535V5.83293H7.33333L6.11233 6.29897L5.86667 5.39843ZM7.7759 17.2333C7.10417 17.2333 6.53767 17.065 6.23333 16.8817L6.4812 16.0109C6.69607 16.1176 7.1929 16.3159 7.6879 16.3159C8.3182 16.3159 8.6383 16.0266 8.6383 15.6519C8.6383 15.1628 8.1268 14.9409 7.59147 14.9409H7.09647V14.1082H7.56837C7.975 14.1009 8.49347 13.9564 8.49347 13.5359C8.49347 13.2378 8.23863 13.0167 7.72713 13.0167C7.304 13.0167 6.8563 13.1923 6.6407 13.3148L6.39357 12.474C6.70523 12.2833 7.3282 12.1 7.99847 12.1C9.10837 12.1 9.72437 12.6577 9.72437 13.3368C9.72437 13.8644 9.4127 14.2769 8.77323 14.491V14.5053C9.3973 14.6131 9.9 15.0634 9.9 15.7131C9.9 16.5909 9.0937 17.2333 7.7759 17.2333ZM12.2833 9.1861L12.9521 8.5954C14.0815 7.60943 14.6307 7.0422 14.6458 6.45187C14.6458 6.0401 14.3917 5.7134 13.7951 5.7134C13.3496 5.7134 12.9602 5.9312 12.6885 6.1336L12.3475 5.28697C12.7373 4.99913 13.3415 4.7663 14.0411 4.7663C15.2104 4.7663 15.855 5.43363 15.855 6.3503C15.855 7.19693 15.2262 7.8727 14.4786 8.52537L14.0015 8.91293V8.9287H15.95V9.9H12.2833V9.1861ZM16.1333 16.0094H15.4616V17.2333H14.2175V16.0094H11.7333V15.2273L13.856 12.1H15.4616V15.1085H16.1333V16.0094Z" fill="#5b7fff"/>
<path d="M13.7093 13.9726L12.9587 15.0935V15.1085H14.2179V13.9726C14.2179 13.6631 14.2351 13.3481 14.2608 13.0159H14.227C14.0459 13.3481 13.8989 13.6484 13.7093 13.9726Z" fill="#5b7fff"/>
</svg>
