<svg width="22" height="26" viewBox="0 0 22 26" fill="none" xmlns="http://www.w3.org/2000/svg">
<path id="Vector" d="M7.31285 2.47619V0H14.6871V2.47619H7.31285ZM8.5419 17.0238L7.18994 14.3C7.08752 14.073 6.93389 13.9026 6.72905 13.7887C6.52421 13.6748 6.30912 13.6182 6.0838 13.619H0C0.307263 10.8333 1.50559 8.4859 3.59497 6.57676C5.68436 4.66762 8.1527 3.71346 11 3.71429C12.27 3.71429 13.4888 3.92063 14.6564 4.33333C15.824 4.74603 16.9199 5.34444 17.9441 6.12857L19.6648 4.39524L21.3855 6.12857L19.6648 7.86191C20.3203 8.72857 20.8426 9.64187 21.2318 10.6018C21.621 11.5617 21.8771 12.5675 22 13.619H16.6844L14.5642 9.34762C14.3389 8.87302 13.9702 8.63571 13.4581 8.63571C12.946 8.63571 12.5773 8.87302 12.352 9.34762L8.5419 17.0238ZM11 26C8.1527 26 5.68436 25.0454 3.59497 23.1363C1.50559 21.2271 0.307263 18.8801 0 16.0952H5.31564L7.43575 20.3667C7.66108 20.8413 8.02979 21.0786 8.5419 21.0786C9.054 21.0786 9.42272 20.8413 9.64804 20.3667L13.4581 12.6905L14.8101 15.4143C14.9125 15.6413 15.0661 15.8117 15.2709 15.9256C15.4758 16.0395 15.6909 16.0961 15.9162 16.0952H22C21.6927 18.881 20.4944 21.228 18.405 23.1363C16.3156 25.0446 13.8473 25.9992 11 26Z" fill="#5b7fff"/>
</svg>
