<svg width="52" height="41" viewBox="0 0 52 41" fill="none" xmlns="http://www.w3.org/2000/svg">
<g id="Vector">
<path d="M4.85333 38.5043H22.7933V39.7522C22.7933 40.4413 22.2501 41 21.58 41H6.06667C5.39656 41 4.85333 40.4413 4.85333 39.7522V38.5043Z" fill="#38a2e5"/>
<path d="M29.2067 38.5043H47.1467V39.7522C47.1467 40.4413 46.6034 41 45.9333 41H30.42C29.7499 41 29.2067 40.4413 29.2067 39.7522V38.5043Z" fill="#38a2e5"/>
<path fill-rule="evenodd" clip-rule="evenodd" d="M0 4.72391C0 3.49328 0.97005 2.49565 2.16667 2.49565H6.5V2.22826C6.5 0.997626 7.47005 0 8.66667 0H43.3333C44.5299 0 45.5 0.997626 45.5 2.22826V2.49565H49.8333C51.0299 2.49565 52 3.49328 52 4.72391V35.3848C52 36.6154 51.0299 37.613 49.8333 37.613H2.16667C0.970051 37.613 0 36.6154 0 35.3848V4.72391ZM15.6 2.49565H36.3133C36.8877 2.49565 37.3533 2.97451 37.3533 3.56522V7.3087C37.3533 7.8994 36.8877 8.37826 36.3133 8.37826H15.6C15.0256 8.37826 14.56 7.8994 14.56 7.3087V3.56522C14.56 2.97451 15.0256 2.49565 15.6 2.49565ZM34.3888 19.5693C34.1684 20.0292 34.208 20.5968 34.5102 21.2575C34.9177 22.1548 35.4933 23.2226 36.0519 24.2587L36.0722 24.2963C37.0608 26.1242 37.9957 27.8531 37.959 28.5313V29.1251C37.959 29.652 37.5409 30.0827 37.0297 30.0827H36.3461V30.2778C36.3461 30.4408 36.219 30.5717 36.0609 30.5717H31.9004C31.7422 30.5717 31.6151 30.4408 31.6151 30.2778V30.0507C31.2168 29.943 30.9231 29.5675 30.9231 29.1251V28.5372L28.7425 23.0534C28.6578 22.8351 28.4742 22.6663 28.2539 22.6022C27.8365 22.4802 27.6725 22.6048 27.5005 22.7356L27.4997 22.7361C27.3839 22.8264 27.2625 22.9195 27.0648 22.9341C25.9717 23.0185 24.8758 23.0214 23.8109 22.9486C23.359 22.9166 22.9438 22.7099 22.6387 22.3665C22.3337 22.023 22.1727 21.5777 22.184 21.112C22.2066 20.2387 22.071 19.6479 21.7801 19.351H14.7527C14.4956 19.351 14.2895 19.1356 14.2895 18.8736V16.8652H14.1652C14.0494 16.8652 13.9533 16.7692 13.9533 16.6469V15.3604C13.9533 15.2411 14.0465 15.1421 14.1652 15.1421H14.3262C14.3911 14.9675 14.5295 14.8277 14.7047 14.7695C14.7075 14.7666 14.7103 14.7608 14.7131 14.7579L15.1651 14.3096C15.1764 14.298 15.1905 14.2922 15.2046 14.2922H15.4842C15.5096 14.2922 15.5322 14.3096 15.5379 14.3358L15.6311 14.7375H34.1091L34.3012 14.1234C34.3097 14.1001 34.3294 14.0826 34.3549 14.0826H34.7672C34.7927 14.0826 34.8124 14.1001 34.8209 14.1234L35.013 14.7375H35.4084C35.7361 14.7375 36.0016 15.0111 36.0016 15.3488V17.2C36.1682 17.5201 36.2416 17.8694 36.2247 18.2391C36.219 18.3613 36.1315 18.4661 36.0129 18.4923C35.64 18.5738 34.7362 18.8445 34.3888 19.5693ZM27.6438 20.8063C27.6438 21.5864 27.028 22.2238 26.2683 22.2238H24.3617C23.6047 22.2238 22.9862 21.5893 22.9862 20.8063V20.7656C22.9862 19.9855 23.6019 19.3481 24.3617 19.3481H25.6582C25.935 19.6857 25.9802 20.0787 25.7909 20.5153C25.6467 20.8496 25.4126 21.0858 25.4015 21.097L25.4011 21.0974C25.3842 21.112 25.3785 21.1382 25.387 21.1585C25.3955 21.1789 25.4152 21.1935 25.435 21.1964C25.4661 21.1993 25.4972 21.1993 25.5282 21.1993C25.8446 21.1993 26.1129 21.0945 26.3247 20.8878C26.7597 20.46 26.8332 19.7294 26.8445 19.4791C27.3162 19.7032 27.6438 20.1951 27.6438 20.7656V20.8063Z" fill="#38a2e5"/>
</g>
</svg>
