<svg width="52" height="41" viewBox="0 0 52 41" fill="none" xmlns="http://www.w3.org/2000/svg">
<g id="Vector">
<path d="M47.1467 38.5043H29.2067V39.7522C29.2067 40.4413 29.7499 41 30.42 41H45.9333C46.6034 41 47.1467 40.4413 47.1467 39.7522V38.5043Z" fill="#38a2e5"/>
<path d="M22.7933 38.5043H4.85333V39.7522C4.85333 40.4413 5.39656 41 6.06667 41H21.58C22.2501 41 22.7933 40.4413 22.7933 39.7522V38.5043Z" fill="#38a2e5"/>
<path fill-rule="evenodd" clip-rule="evenodd" d="M0 35.3848V4.72391C0 3.49328 0.970051 2.49565 2.16667 2.49565H6.5V2.22826C6.5 0.997626 7.47005 0 8.66667 0H43.3333C44.5299 0 45.5 0.997626 45.5 2.22826V2.49565H49.8333C51.0299 2.49565 52 3.49328 52 4.72391V35.3848C52 36.6154 51.0299 37.613 49.8333 37.613H2.16667C0.970051 37.613 0 36.6154 0 35.3848ZM36.4 2.49565H15.6867C15.1123 2.49565 14.6467 2.97451 14.6467 3.56522V7.3087C14.6467 7.8994 15.1123 8.37826 15.6867 8.37826H36.4C36.9744 8.37826 37.44 7.8994 37.44 7.3087V3.56522C37.44 2.97451 36.9744 2.49565 36.4 2.49565ZM28.7508 18.2138L26 13L23.2492 18.2138L17.4405 19.2188L21.5491 23.4462L20.7099 29.2812L26 26.68L31.2901 29.2812L30.4509 23.4462L34.5595 19.2188L28.7508 18.2138Z" fill="#38a2e5"/>
</g>
</svg>
