<svg width="70" height="61" viewBox="0 0 70 61" fill="none" xmlns="http://www.w3.org/2000/svg">
<path d="M39.32 0C32.4456 0 26.1035 2.24433 20.9902 6.05381L21.82 6.97768L24.7246 10.5273C25.5821 11.5588 25.9801 13.2261 25.0174 14.0526C22.6852 16.055 20.6798 18.5501 19.6234 21.4436C18.5717 24.3814 18.8027 27.3983 19.5502 30.5851C19.7272 31.843 18.5877 32.9834 17.2802 33.3324L12.8382 34.5237L10.0069 35.2531L9.10384 35.4962C11.4889 49.9823 24.0983 61 39.32 61C56.2418 61 70 47.3683 70 30.5122C70 13.6561 56.2418 0 39.32 0ZM13.1067 0.510555C12.5713 0.548201 12.0358 0.752708 11.569 1.09406C11.5607 1.10043 11.5289 1.08758 11.5202 1.09406L11.4227 1.21566L11.3005 1.31289C4.38856 7.03526 0 15.6496 0 25.3093C0 27.8318 0.263739 30.2561 0.829874 32.603C0.865845 32.7529 0.909955 32.9095 0.951925 33.065L1.00067 33.2595C1.00896 33.2863 1.01822 33.3063 1.02508 33.3325V33.4297C1.5056 34.9266 3.04754 35.7617 4.58854 35.3504L8.88422 34.1834L11.5934 33.5026L15.8647 32.3356C17.1162 32.0016 18.2064 30.914 18.0369 29.7099C17.3214 26.6593 17.1034 23.7696 18.1102 20.9574C19.1215 18.1876 21.0275 15.8236 23.2601 13.9068C24.1817 13.1156 23.8125 11.4905 22.9916 10.503L20.2092 7.09928L18.4275 4.98409L15.5474 1.55604C14.9115 0.791095 14.0159 0.44675 13.1067 0.510591V0.510555ZM39.3445 14.2471C48.3631 14.2471 55.6974 21.5285 55.6974 30.5122C55.6974 39.4958 48.3631 46.7529 39.3445 46.7529C30.3258 46.7529 23.016 39.4958 23.016 30.5122C23.016 21.5285 30.3258 14.2471 39.3445 14.2471ZM39.3445 16.0462C31.3266 16.0462 24.8465 22.5254 24.8465 30.5122C24.8465 38.4989 31.3266 44.9538 39.3445 44.9538C47.3624 44.9538 53.8668 38.4989 53.8668 30.5122C53.8668 22.5254 47.3623 16.0462 39.3445 16.0462ZM39.3932 17.6509C40.4991 17.6509 41.419 18.5672 41.419 19.6688C41.419 20.7704 40.4991 21.6381 39.3932 21.6381C38.2874 21.6381 37.4163 20.7704 37.4163 19.6688C37.4163 18.5672 38.2874 17.6509 39.3932 17.6509ZM39.3445 23.34C43.3094 23.34 46.5446 26.5626 46.5446 30.5122C46.5446 34.4617 43.3094 37.66 39.3445 37.66C35.3794 37.66 32.1687 34.4617 32.1687 30.5122C32.1687 26.5626 35.3794 23.34 39.3445 23.34ZM50.3277 27.8864C51.4336 27.8864 52.3292 28.8028 52.3292 29.9043C52.3292 31.0059 51.4336 31.8736 50.3277 31.8736C49.2219 31.8736 48.3263 31.0059 48.3263 29.9043C48.3263 28.8028 49.2219 27.8864 50.3277 27.8864ZM28.3612 29.1264C29.467 29.1264 30.387 30.0427 30.387 31.1443C30.387 32.2458 29.467 33.1136 28.3612 33.1136C27.2553 33.1136 26.3598 32.2458 26.3598 31.1443C26.3598 30.0427 27.2553 29.1264 28.3612 29.1264ZM39.2713 39.3619C40.3771 39.3619 41.2971 40.2782 41.2971 41.3798C41.2971 42.4814 40.3771 43.3491 39.2713 43.3491C38.1654 43.3491 37.2943 42.4814 37.2943 41.3798C37.2943 40.2782 38.1654 39.3619 39.2713 39.3619Z" fill="white"/>
</svg>
