<svg width="87" height="55" viewBox="0 0 87 55" fill="none" xmlns="http://www.w3.org/2000/svg">
<path d="M24.7598 0C23.419 0 22.3278 1.08982 22.3278 2.4618V2.8348V2.86464V3.27494C22.3278 4.61574 23.419 5.70691 24.7598 5.70691H32.2422V9.41453H24.7001H24.4166C21.735 9.57044 19.6124 11.7508 19.6124 14.4948V15.3378H13.7861C11.2916 15.3378 9.29517 17.4312 9.29517 19.9257V27.3782H5.70691V17.0536C5.70691 15.7128 4.61574 14.6515 3.27494 14.6515H2.8721H2.84226H2.4618C1.08982 14.6515 0 15.7128 0 17.0536V46.5505C0 47.8913 1.08982 48.9824 2.4618 48.9824H2.84226H2.8721H3.27494C4.61574 48.9824 5.70691 47.8913 5.70691 46.5505V36.2631H9.29517V43.7156C9.29517 46.2413 11.2916 48.2663 13.7861 48.2663H21.925V49.4524C21.925 52.1652 24.009 54.4378 26.7217 54.5625H26.9754H59.2474H59.4936C62.2063 54.4378 64.3575 52.1652 64.3575 49.4524V48.2663H66.8566C69.3511 48.2663 71.4072 46.2413 71.4072 43.7156V43.4322H76.7113V49.6389H81.8512C84.5952 49.6389 86.8121 47.4579 86.8121 44.7451V18.8664C86.8121 16.1536 84.5952 13.9353 81.8512 13.9353H76.7113V20.1719H71.4072V19.9257C71.4072 17.4312 69.3511 15.3378 66.8566 15.3378H59.4339V14.4948C59.4339 11.7508 57.2827 9.57044 54.57 9.41453H54.3238H46.0879V5.70691H54.2566C55.5974 5.70691 56.6886 4.61574 56.6886 3.27494V2.86464V2.8348V2.4618C56.6886 1.08982 55.5974 0 54.2566 0H24.7598ZM31.153 16.5239C32.2132 16.5863 31.2122 17.7095 32.9583 17.8966C34.9851 18.1148 33.7432 16.4022 35.6141 17.1506C37.5161 17.8677 35.3938 18.2695 37.0464 19.4855C38.6678 20.6704 38.4163 18.5518 39.6947 20.142C40.9731 21.7323 38.9498 21.0164 39.7917 22.8873C40.6024 24.727 41.4418 22.7628 41.7537 24.7896C42.0655 26.7852 40.659 25.1649 40.4407 27.1917C40.2224 29.2185 41.9412 27.938 41.224 29.84C40.4757 31.7421 40.0739 29.4964 38.889 31.2425C37.5794 33.1446 39.7618 32.6422 38.2027 33.9207C36.6125 35.1991 37.3283 33.1771 35.4574 33.9878C33.6177 34.8297 35.5806 35.6678 33.585 35.9796C31.5582 36.2914 33.1798 34.8924 31.153 34.6741C29.1574 34.4558 30.3756 36.1685 28.5047 35.4201C26.6026 34.7029 28.7175 34.3012 27.0649 33.0851C25.4435 31.9002 25.6639 34.0189 24.4166 32.4287C23.1382 30.8696 25.1378 31.5543 24.3271 29.6834C23.8594 28.6232 23.3883 28.8119 23.0141 28.7807C23.0141 28.7807 22.6779 28.7958 22.5441 28.639C22.2697 28.3172 22.3278 27.3782 22.3278 27.3782C22.2966 26.0686 23.4835 27.2186 23.6706 25.3789C23.8889 23.3522 22.1701 24.6327 22.8873 22.7306C23.6357 20.8286 24.0449 22.9509 25.2297 21.2983C26.4458 19.6769 24.3258 19.8912 25.9161 18.6127C27.5063 17.3655 26.7843 19.3936 28.6241 18.5829C30.4949 17.741 28.5606 16.8954 30.5562 16.5836C30.8056 16.5524 30.9971 16.5239 31.153 16.5239ZM31.899 22.671C31.7743 22.7021 31.6195 22.7008 31.526 22.7008C29.5304 23.0126 28.1929 24.8841 28.5047 26.8486C28.7853 28.813 30.6209 30.1518 32.5853 29.84C34.5809 29.5282 35.9259 27.7177 35.6141 25.7221C35.3646 24.0071 33.9259 22.7645 32.2422 22.671H31.899ZM48.1767 26.6621C48.2703 26.6621 48.3938 26.6919 48.5497 26.6919C50.7324 26.8166 48.706 27.9381 50.7952 28.6241C52.8843 29.31 51.947 27.1916 53.7867 28.4077C55.6264 29.6238 53.3208 29.5912 54.7863 31.2127C56.2206 32.8653 56.4368 30.5538 57.4346 32.5182C58.4324 34.4826 56.4386 33.2686 56.8751 35.4201C57.3428 37.5716 58.6858 35.668 58.5611 37.8819C58.4363 40.0646 57.3149 38.0681 56.6289 40.1572C55.9118 42.2464 58.0302 41.3164 56.8453 43.1561C55.6292 44.9958 55.6631 42.6543 54.0105 44.0886C52.389 45.5542 54.6918 45.8063 52.7273 46.8041C50.7629 47.8019 51.9471 45.8006 49.7956 46.2371C47.644 46.7049 49.5164 48.0478 47.3338 47.9231C45.1511 47.7984 47.1774 46.6471 45.0883 45.9611C42.9991 45.2751 43.9365 47.3922 42.0968 46.2073C40.2571 44.9912 42.5925 45.0251 41.127 43.3725C39.6615 41.7199 39.4155 44.0613 38.4489 42.0968C37.4511 40.1324 39.4449 41.3166 39.0084 39.165C38.5407 37.0135 37.2052 38.8785 37.3299 36.6958C37.4546 34.4819 38.576 36.5395 39.262 34.4503C39.9792 32.3612 37.8533 33.2986 39.0382 31.4589C40.2543 29.6192 40.2279 31.9247 41.8805 30.4592C43.5019 28.9937 41.1917 28.7775 43.1561 27.8109C45.1206 26.8131 43.9364 28.8083 46.0879 28.3406C48.0835 27.9352 46.5553 26.7244 48.1767 26.6621ZM47.7739 33.391C45.7783 33.4845 44.1537 35.0495 44.029 37.0762C43.9042 39.2278 45.5552 41.0993 47.7067 41.224C49.8583 41.3176 51.7298 39.6903 51.8545 37.5388C51.9792 35.3561 50.3282 33.5157 48.1767 33.391H47.7739Z" fill="white"/>
</svg>
