<svg width="24" height="66" viewBox="0 0 24 66" fill="none" xmlns="http://www.w3.org/2000/svg">
<path d="M20.8926 32.4996H2.3214C1.70573 32.4996 1.11527 32.7441 0.679922 33.1795C0.244576 33.6148 0 34.2053 0 34.821C0 35.4366 0.244576 36.0271 0.679922 36.4624C1.11527 36.8978 1.70573 37.1424 2.3214 37.1424H20.8926C21.5083 37.1424 22.0987 36.8978 22.5341 36.4624C22.9694 36.0271 23.214 35.4366 23.214 34.821C23.214 34.2053 22.9694 33.6148 22.5341 33.1795C22.0987 32.7441 21.5083 32.4996 20.8926 32.4996Z" fill="white"/>
<path d="M20.8926 25.5354H2.3214C1.70573 25.5354 1.11527 25.78 0.679922 26.2153C0.244576 26.6506 0 27.2411 0 27.8568C0 28.4724 0.244576 29.0629 0.679922 29.4983C1.11527 29.9336 1.70573 30.1782 2.3214 30.1782H20.8926C21.5083 30.1782 22.0987 29.9336 22.5341 29.4983C22.9694 29.0629 23.214 28.4724 23.214 27.8568C23.214 27.2411 22.9694 26.6506 22.5341 26.2153C22.0987 25.78 21.5083 25.5354 20.8926 25.5354Z" fill="white"/>
<path d="M20.8926 18.5712H2.3214C1.70573 18.5712 1.11527 18.8158 0.679922 19.2511C0.244576 19.6865 0 20.2769 0 20.8926C0 21.5083 0.244576 22.0987 0.679922 22.5341C1.11527 22.9694 1.70573 23.214 2.3214 23.214H20.8926C21.5083 23.214 22.0987 22.9694 22.5341 22.5341C22.9694 22.0987 23.214 21.5083 23.214 20.8926C23.214 20.2769 22.9694 19.6865 22.5341 19.2511C22.0987 18.8158 21.5083 18.5712 20.8926 18.5712Z" fill="white"/>
<path d="M20.8926 11.607H2.3214C1.70573 11.607 1.11527 11.8516 0.679922 12.2869C0.244576 12.7223 0 13.3127 0 13.9284C0 14.5441 0.244576 15.1345 0.679922 15.5699C1.11527 16.0052 1.70573 16.2498 2.3214 16.2498H20.8926C21.5083 16.2498 22.0987 16.0052 22.5341 15.5699C22.9694 15.1345 23.214 14.5441 23.214 13.9284C23.214 13.3127 22.9694 12.7223 22.5341 12.2869C22.0987 11.8516 21.5083 11.607 20.8926 11.607Z" fill="white"/>
<path d="M19.7319 9.28559V1.1607C19.7319 0.852862 19.6096 0.557634 19.3919 0.339961C19.1742 0.122288 18.879 0 18.5712 0H4.64279C4.33495 0 4.03972 0.122288 3.82205 0.339961C3.60437 0.557634 3.48209 0.852862 3.48209 1.1607V9.28559H19.7319Z" fill="white"/>
<path d="M18.5712 48.7494C18.879 48.7494 19.1742 48.6271 19.3919 48.4094C19.6096 48.1917 19.7319 47.8965 19.7319 47.5887V39.4638H3.4821V47.5887C3.4821 47.8965 3.60438 48.1917 3.82206 48.4094C4.03973 48.6271 4.33496 48.7494 4.64279 48.7494H8.12489V49.5394C6.45816 50.33 5.11008 51.6643 4.30235 53.3228C3.49462 54.9813 3.27532 56.8653 3.68051 58.665C4.08571 60.4647 5.09128 62.0729 6.53185 63.2252C7.97243 64.3775 9.76225 65.0052 11.607 65.0052C13.4517 65.0052 15.2415 64.3775 16.6821 63.2252C18.1227 62.0729 19.1283 60.4647 19.5335 58.665C19.9387 56.8653 19.7194 54.9813 18.9116 53.3228C18.1039 51.6643 16.7558 50.33 15.0891 49.5394V48.7494H18.5712ZM11.607 60.3563C10.9183 60.3563 10.2451 60.1521 9.67244 59.7695C9.09981 59.3869 8.6535 58.8431 8.38995 58.2068C8.1264 57.5705 8.05744 56.8704 8.1918 56.1949C8.32616 55.5195 8.65779 54.899 9.14477 54.412C9.63175 53.9251 10.2522 53.5934 10.9277 53.4591C11.6031 53.3247 12.3033 53.3937 12.9395 53.6572C13.5758 53.9208 14.1196 54.3671 14.5022 54.9397C14.8849 55.5123 15.0891 56.1856 15.0891 56.8742C15.0881 57.7974 14.7209 58.6825 14.0681 59.3353C13.4153 59.9881 12.5302 60.3553 11.607 60.3563Z" fill="white"/>
</svg>
