<svg width="38" height="64" viewBox="0 0 38 64" fill="none" xmlns="http://www.w3.org/2000/svg">
<path d="M18.9687 0C13.0135 0 8.20099 4.81248 8.20099 10.7677C8.20099 15.2689 10.9541 19.1333 14.8682 20.7529C14.8682 28.0712 14.8682 35.3776 14.8682 42.6952C14.2458 42.6957 13.7681 42.6962 12.8962 42.6952C12.1227 42.6943 11.9102 42.6958 11.1433 42.6952V42.7265C10.7882 42.7271 9.48438 42.7265 9.26524 42.7265C8.11554 42.7265 7.19934 43.674 7.19934 44.8237V47.1087C7.14155 47.1087 6.77914 47.1087 6.72982 47.1087C5.58012 47.1087 4.66392 48.0562 4.66392 49.2059V51.4596C4.60913 51.4596 4.24099 51.4596 4.1944 51.4596C3.0447 51.4596 2.1285 52.4071 2.1285 53.5568V56.0922C2.1285 56.17 2.15169 56.2359 2.1598 56.3113H2.0659C0.916197 56.3113 0 57.2588 0 58.4085V60.9439C0 62.0936 0.916197 63.0098 2.0659 63.0098H11.1433H26.8567H35.9341C37.0838 63.0098 38 62.0936 38 60.9439V58.4085C38 57.2588 37.0838 56.3113 35.9341 56.3113H35.8402H25.0099C24.5389 56.3115 24.165 55.9371 24.1647 55.4662V55.3097V55.1532C24.1645 54.6822 24.5389 54.3082 25.0099 54.308H35.8715V53.5568C35.8715 52.4071 34.9553 51.4596 33.8056 51.4596H33.6491H33.3361H21.8797C21.4088 51.4598 21.0348 51.0854 21.0346 50.6144V50.4579V50.3014C21.0344 49.8305 21.4088 49.4565 21.8797 49.4563H33.3361V49.2059C33.3361 48.0562 32.4199 47.1087 31.2702 47.1087C31.2209 47.1087 30.8585 47.1087 30.8007 47.1087H19.0626C18.5917 47.1089 18.2177 46.7345 18.2175 46.2635V46.107V45.9818C18.2173 45.5109 18.5917 45.1369 19.0626 45.1367L30.8007 45.1054V44.8237C30.8007 43.674 29.8845 42.7265 28.7348 42.7265C28.5156 42.7265 27.2118 42.7271 26.8567 42.7265V42.6953C26.0898 42.6958 25.8773 42.6944 25.1038 42.6953C24.2181 42.6963 23.7304 42.6958 23.1005 42.6953V20.7529C27.0233 19.1333 29.7677 15.269 29.7677 10.7678C29.7677 4.81254 24.9239 6.11357e-05 18.9687 6.11357e-05V0Z" fill="white"/>
</svg>
