<svg width="75" height="61" viewBox="0 0 75 61" fill="none" xmlns="http://www.w3.org/2000/svg">
<path d="M73.6643 0H68.3214C67.5837 0 66.9857 0.591786 66.9857 1.32179V19.8269C66.9857 20.5569 67.5837 21.1487 68.3214 21.1487H73.6643C74.402 21.1487 75 20.5569 75 19.8269V1.32179C75 0.591786 74.402 0 73.6643 0Z" fill="white"/>
<path d="M24.4326 30.4012C24.5572 29.9281 24.7481 29.4747 24.9999 29.054L23.0607 27.1349C22.3601 28.107 21.892 29.2239 21.6917 30.4012H24.4326Z" fill="white"/>
<path d="M41.4989 21.1487C44.2405 24.1534 45.7119 28.085 45.6093 32.1321C45.5067 36.1792 43.838 40.0328 40.9475 42.8977C40.9357 42.9101 40.9321 42.9266 40.9198 42.9389C40.9075 42.9512 40.8908 42.9547 40.8782 42.9662C37.8799 45.9237 33.8192 47.5845 29.5858 47.5845C25.3523 47.5845 21.2916 45.9237 18.2934 42.9662C18.2807 42.9547 18.2641 42.9511 18.2517 42.9389C18.2393 42.9268 18.2358 42.9101 18.2241 42.8977C15.2354 39.9307 13.5572 35.9123 13.5572 31.723C13.5572 27.5337 15.2354 23.5153 18.2241 20.5483C18.2358 20.5359 18.2394 20.5194 18.2517 20.5071C18.264 20.4948 18.2807 20.4913 18.2934 20.4798C20.904 17.9029 24.3347 16.2985 28.0041 15.9386C31.6735 15.5787 35.3557 16.4854 38.4267 18.5051H56.3V2.64358H29.5858C23.2788 2.62238 17.1311 4.60299 12.0456 8.29455C6.96013 11.9861 3.2048 17.1941 1.33115 23.1536C-0.542505 29.1131 -0.435741 35.5101 1.63576 41.4051C3.70726 47.3002 7.63434 52.3826 12.8402 55.9059C18.0462 59.4293 24.2566 61.2079 30.5594 60.9806C36.8622 60.7533 42.9253 58.5321 47.8583 54.6431C52.7912 50.7541 56.3341 45.4024 57.9665 39.3737C59.5989 33.3451 59.2348 26.9574 56.9278 21.1487H41.4989Z" fill="white"/>
<path d="M26.8887 27.185C27.3138 26.9359 27.772 26.7469 28.2501 26.6235V23.9112C27.0604 24.1093 25.9317 24.5724 24.9494 25.2655L26.8887 27.185Z" fill="white"/>
<path d="M24.9999 34.392C24.7481 33.9713 24.5572 33.5179 24.4326 33.0448H21.6917C21.8919 34.2221 22.3599 35.339 23.0603 36.3111L24.9999 34.392Z" fill="white"/>
<path d="M28.2501 36.8225C27.772 36.6991 27.3138 36.5101 26.8887 36.261L24.9494 38.1801C25.9317 38.8733 27.0603 39.3366 28.2501 39.5348V36.8225Z" fill="white"/>
<path d="M23.044 40.0656L21.1384 41.9514C23.1657 43.5985 25.6401 44.6153 28.25 44.8739V42.2055C26.3516 41.9693 24.5528 41.23 23.044 40.0656Z" fill="white"/>
<path d="M18.9936 33.0448H16.2964C16.5576 35.6276 17.5851 38.0762 19.2496 40.0823L21.1553 38.1966C19.9789 36.7034 19.232 34.9234 18.9936 33.0448Z" fill="white"/>
<path d="M29.5858 34.3666C31.0612 34.3666 32.2572 33.183 32.2572 31.723C32.2572 30.263 31.0612 29.0794 29.5858 29.0794C28.1104 29.0794 26.9143 30.263 26.9143 31.723C26.9143 33.183 28.1104 34.3666 29.5858 34.3666Z" fill="white"/>
<path d="M36.1276 23.3804L38.0331 21.4946C36.0058 19.8475 33.5314 18.8307 30.9215 18.5721V21.2412C32.8199 21.4771 34.6186 22.2162 36.1276 23.3804Z" fill="white"/>
<path d="M30.9215 23.9112V26.6235C31.3995 26.7469 31.8578 26.9359 32.2828 27.185L34.2222 25.2659C33.2399 24.5727 32.1112 24.1094 30.9215 23.9112Z" fill="white"/>
<path d="M40.1786 33.0448C39.94 34.9235 39.1929 36.7035 38.0162 38.1966L39.9219 40.0823C41.5864 38.0762 42.6139 35.6276 42.8752 33.0448H40.1786Z" fill="white"/>
<path d="M32.2828 36.261C31.8578 36.5101 31.3995 36.6991 30.9215 36.8225V39.5348C32.1112 39.3367 33.2398 38.8736 34.2222 38.1805L32.2828 36.261Z" fill="white"/>
<path d="M36.1276 40.0656C34.6187 41.23 32.82 41.9693 30.9215 42.2055V44.8739C33.5314 44.6153 36.0058 43.5985 38.0331 41.9514L36.1276 40.0656Z" fill="white"/>
<path d="M38.0162 25.2494C39.1929 26.7425 39.94 28.5225 40.1786 30.4012H42.8752C42.6139 27.8184 41.5864 25.3698 39.9219 23.3637L38.0162 25.2494Z" fill="white"/>
<path d="M18.9936 30.4012C19.2322 28.5225 19.9793 26.7425 21.1559 25.2494L19.2503 23.3637C17.5855 25.3698 16.5578 27.8184 16.2964 30.4012H18.9936Z" fill="white"/>
<path d="M34.1717 29.054C34.4234 29.4747 34.6144 29.9281 34.7389 30.4012H37.4798C37.2796 29.2239 36.8117 28.107 36.1113 27.1349L34.1717 29.054Z" fill="white"/>
<path d="M34.7389 33.0448C34.6144 33.5179 34.4234 33.9713 34.1717 34.392L36.1108 36.3111C36.8114 35.339 37.2795 34.2221 37.4798 33.0448H34.7389Z" fill="white"/>
<path d="M23.044 23.3804C24.5529 22.2162 26.3516 21.4771 28.25 21.2412V18.5721C25.6401 18.8307 23.1657 19.8475 21.1384 21.4946L23.044 23.3804Z" fill="white"/>
<path d="M64.3143 2.64358H58.9714V18.5051H64.3143V2.64358Z" fill="white"/>
</svg>
