<svg width="33" height="33" viewBox="0 0 33 33" fill="none" xmlns="http://www.w3.org/2000/svg">
<g clip-path="url(#clip0_84_151)">
<mask id="mask0_84_151" style="mask-type:luminance" maskUnits="userSpaceOnUse" x="0" y="0" width="33" height="33">
<path d="M0 0H33V33H0V0Z" fill="white"/>
</mask>
<g mask="url(#mask0_84_151)">
<path d="M10.3092 8.14209C9.54137 8.58591 8.83368 9.15869 8.10438 9.6805C5.47114 11.5639 2.84187 13.4552 0.216632 15.3545L0 15.5224V15.5944C0.493695 16.0448 1.01524 16.446 1.55974 16.7939C4.7081 19.0871 7.86768 21.3753 11.0385 23.6584C11.1107 23.7199 11.1929 23.7609 11.2792 23.7784C11.4536 23.7666 11.6212 23.6904 11.7606 23.5595C14.4083 21.6402 17.056 19.7538 19.7037 17.8345C20.2116 17.4597 20.7243 17.0938 21.2563 16.722C21.385 16.6527 21.5006 16.5505 21.5956 16.4221C21.4608 16.0412 21.1624 15.9572 20.8952 15.8223C20.7628 15.9153 20.6401 16.0262 20.5005 16.1042C18.5749 17.4927 16.6492 18.8692 14.7236 20.2547C14.0906 20.7075 13.4527 21.1543 12.8317 21.6282C12.7337 21.719 12.6165 21.772 12.4945 21.7805C12.3726 21.7891 12.2513 21.7528 12.1458 21.6761C11.8759 21.5048 11.5754 21.4217 11.2726 21.4348C10.9699 21.448 10.6748 21.5568 10.4151 21.7512C10.3284 21.823 10.2261 21.8601 10.122 21.8574C10.0178 21.8547 9.91688 21.8124 9.83262 21.7361C7.48339 20.0388 5.13895 18.3264 2.78731 16.638C2.52254 16.4491 2.52254 16.446 2.76083 16.2361C3.26149 15.7923 3.22779 15.2735 2.62364 14.7367C5.31947 12.7664 7.98164 10.8531 10.6534 8.93382C10.7401 8.84984 10.8459 8.78687 10.858 8.63392C10.8014 8.50644 10.7229 8.39619 10.628 8.31113C10.5331 8.22607 10.4242 8.16836 10.3092 8.14209Z" fill="#93D5A7"/>
<path d="M0 19.6968V20.1796C0.459746 20.5696 0.936239 20.928 1.42735 21.2532C3.67389 22.8707 5.91642 24.4901 8.15494 26.1115C9.11774 26.7982 10.0805 27.479 11.0168 28.1837C11.1204 28.2587 11.2311 28.3817 11.3683 28.2557C11.3961 28.1911 11.4107 28.119 11.4107 28.0458C11.4107 27.9725 11.3961 27.9004 11.3683 27.8359C11.0168 27.41 10.5619 27.1881 10.1503 26.8882C8.3186 25.5537 6.48205 24.2371 4.64792 22.9117C3.20372 21.874 1.77637 20.8304 0.336982 19.8018C0.24311 19.7298 0.144419 19.5768 0 19.6968Z" fill="#65C17B"/>
<path d="M0 20.9023V21.3822C0.513078 21.8415 1.05294 22.2524 1.6151 22.6117C3.45565 23.9452 5.30102 25.2777 7.15121 26.6092C8.43496 27.5389 9.7235 28.4685 11.0168 29.3982C11.1204 29.4732 11.2263 29.6111 11.3659 29.4792C11.3936 29.4267 11.4123 29.3676 11.4206 29.3056C11.4288 29.2436 11.4266 29.1802 11.414 29.1193C11.4075 29.079 11.3953 29.0404 11.3779 29.0054C10.6558 28.4266 9.9 27.9197 9.16107 27.383C6.2197 25.2537 3.27753 23.1285 0.334573 21.0072C0.226258 20.9353 0.129979 20.8333 0 20.9023Z" fill="#64C17B"/>
<path d="M0 18.4133V18.8931C0.222719 19.1825 0.490565 19.4121 0.787092 19.5678C3.04005 21.1872 5.28819 22.8217 7.53875 24.4441C8.66203 25.2437 9.78525 26.0535 10.9085 26.8732C11.0457 26.9692 11.1733 27.1731 11.3707 27.0531C11.4001 26.9905 11.4175 26.9203 11.4212 26.8479C11.425 26.7755 11.4151 26.703 11.3924 26.6363C11.3372 26.5188 11.2527 26.4271 11.1517 26.3754C7.96961 24.0662 4.7779 21.787 1.60066 19.4778C1.17702 19.178 0.743767 18.8781 0.320132 18.5542C0.223852 18.4763 0.132385 18.3563 0 18.4133Z" fill="#64C17B"/>
<path d="M0 16.647V17.0489C0.286433 17.4898 0.722101 17.6727 1.08796 17.9486C3.61532 19.7809 6.14269 21.6012 8.67725 23.4366C9.47153 24.0124 10.2731 24.5821 11.0698 25.1609C11.1069 25.1993 11.1501 25.2276 11.1965 25.2441C11.2429 25.2606 11.2916 25.265 11.3394 25.2569C11.3651 25.2312 11.3844 25.1969 11.3947 25.1579C11.4162 25.0597 11.4162 24.9562 11.3947 24.858C11.3869 24.8186 11.3739 24.7811 11.3563 24.7471C10.7511 24.2385 10.1244 23.7709 9.47877 23.3466C7.66872 22.0251 5.85143 20.7066 4.02692 19.391C2.78972 18.4913 1.55733 17.6067 0.320132 16.716C0.223852 16.647 0.125164 16.5331 0 16.647Z" fill="#64C17B"/>
<path d="M0 16.0051V16.4939C0.808755 17.1417 1.65361 17.7145 2.48644 18.3173C3.63939 19.157 4.79716 19.9876 5.9549 20.8214C7.11267 21.6551 8.28007 22.4917 9.45232 23.3315C10.0637 23.7663 10.6558 24.2551 11.2937 24.624C11.3103 24.6236 11.3266 24.6179 11.3409 24.6074C11.3552 24.5969 11.3672 24.582 11.3755 24.564C11.4182 24.4495 11.4267 24.3198 11.3996 24.1981C11.3919 24.1591 11.378 24.1224 11.3587 24.0901C10.3718 23.3404 9.36082 22.6357 8.36193 21.9129C6.52777 20.5855 4.69285 19.2599 2.85711 17.9364L0.324947 16.11C0.22626 16.0381 0.129978 15.9361 0 16.0051Z" fill="#64C17B"/>
<path d="M0 17.2078V17.6936C0.293654 18.0805 0.69322 18.2724 1.05186 18.5333C3.13633 20.0508 5.23042 21.5502 7.31009 23.0616L11.0241 25.7336C11.1252 25.8056 11.2238 25.8986 11.3514 25.8146C11.381 25.7644 11.4006 25.7061 11.4086 25.6446C11.4165 25.583 11.4126 25.52 11.3971 25.4607C11.3888 25.4209 11.3731 25.3839 11.3514 25.3528C10.1311 24.4202 8.87461 23.5535 7.63982 22.6538C6.65296 21.931 5.66126 21.2203 4.67199 20.5066C3.49898 19.6628 2.33319 18.8252 1.17462 17.9934C0.853685 17.7655 0.539169 17.5366 0.231074 17.3067C0.158864 17.2437 0.0938727 17.1688 0 17.2078Z" fill="#64C17B"/>
<path d="M0 17.8495V18.3323C0.984463 19.0821 1.993 19.7838 2.9895 20.5096C4.28928 21.4602 5.59627 22.3958 6.90088 23.3375L11.0361 26.3364C11.13 26.4054 11.2263 26.5253 11.3587 26.4384C11.3859 26.3851 11.4043 26.3254 11.4125 26.2631C11.4208 26.2007 11.4189 26.1369 11.4068 26.0755C11.3994 26.0354 11.3855 25.9977 11.3659 25.9645C9.76119 24.803 8.15254 23.6404 6.5398 22.4768C4.97527 21.3492 3.41072 20.2227 1.84617 19.097C1.36477 18.7581 0.902628 18.4133 0.433262 18.0714C0.300877 17.9605 0.178118 17.8045 0 17.8495Z" fill="#65C17B"/>
<path d="M0 20.2607V20.7405C0.428058 21.1378 0.884029 21.4861 1.36236 21.7811C2.92932 22.9297 4.49147 24.0603 6.0777 25.1939C7.66388 26.3274 9.1707 27.4461 10.7472 28.5497C10.9374 28.6816 11.0939 28.9695 11.3683 28.8495C11.3938 28.7956 11.4088 28.735 11.4121 28.6725C11.4154 28.61 11.407 28.5474 11.3875 28.4897C11.1104 28.1982 10.8027 27.9551 10.4729 27.7669C8.47988 26.3125 6.47726 24.876 4.47943 23.4335C3.03523 22.3959 1.61751 21.3343 0.170899 20.3386C0.117945 20.2937 0.0722103 20.2217 0 20.2607Z" fill="#65C17B"/>
<path d="M0 19.0551V19.5379C0.772649 20.1827 1.60066 20.7225 2.40701 21.3103C3.96674 22.4499 5.53128 23.5815 7.10064 24.7051C8.42692 25.6557 9.74836 26.6364 11.0794 27.56C11.1637 27.617 11.2431 27.7669 11.3634 27.632C11.3883 27.5812 11.4034 27.5239 11.4076 27.4646C11.4118 27.4053 11.4049 27.3456 11.3875 27.2901C11.0626 26.8673 10.6221 26.6663 10.2297 26.3905C8.67485 25.2419 7.10064 24.1233 5.54091 22.9957C4.13283 21.982 2.72714 20.9594 1.31904 19.9518C0.974838 19.7059 0.630637 19.463 0.291249 19.211C0.199782 19.1121 0.12035 19.0101 0 19.0551Z" fill="#64C17B"/>
<path d="M0 21.946V22.027C0.748575 22.6507 1.5477 23.1756 2.32757 23.7394C4.16171 25.0689 5.99988 26.3974 7.84202 27.7249L11.0481 30.034C11.1444 30.106 11.2407 30.223 11.3683 30.1031C11.3961 30.0385 11.4107 29.9663 11.4107 29.8931C11.4107 29.8199 11.3961 29.7477 11.3683 29.6832C10.7521 29.1254 10.0709 28.7055 9.41617 28.2257C8.26325 27.38 7.10064 26.5523 5.94287 25.7156C4.78512 24.879 3.62735 24.0422 2.46718 23.2086C1.74508 22.6897 1.02298 22.1649 0.300876 21.6431C0.219037 21.5862 0.151644 21.4842 0.0409217 21.5441C0.00241009 21.6701 0.0722105 21.823 0 21.946Z" fill="#64C17B"/>
<path d="M0 23.7903V23.9522C0.0230897 23.9771 0.0501713 23.9955 0.0794312 24.0063C0.669017 24.364 1.24126 24.7646 1.79322 25.2058C4.21948 26.9472 6.64413 28.6956 9.06718 30.4509C9.71707 30.9207 10.367 31.3896 11.0168 31.8574C11.1204 31.9294 11.2214 32.0793 11.3658 31.9624C11.3954 31.8993 11.4127 31.8285 11.4164 31.7556C11.4202 31.6827 11.4103 31.6098 11.3875 31.5425C11.3314 31.4261 11.2471 31.3348 11.1468 31.2816C7.81712 28.8824 4.48585 26.4763 1.15296 24.0632L0.401972 23.5174C0.296065 23.4395 0.190153 23.3225 0.0457338 23.4005C0 23.5174 0.0722101 23.6674 0 23.7903Z" fill="#64C17B"/>
<path d="M0 23.1485V23.2295C0.854485 23.8863 1.73064 24.498 2.59956 25.1278C4.04376 26.1684 5.46868 27.197 6.89849 28.2347C8.27528 29.2333 9.65692 30.2229 11.0361 31.2186C11.13 31.2876 11.2263 31.4075 11.3587 31.3206C11.3859 31.2672 11.4043 31.2076 11.4125 31.1453C11.4208 31.0829 11.4189 31.019 11.4068 30.9577C11.399 30.9183 11.386 30.8808 11.3683 30.8467C10.6895 30.2829 9.96738 29.8091 9.26454 29.2993C7.57643 28.0757 5.89156 26.8552 4.20985 25.6376C2.94537 24.7279 1.6833 23.8172 0.423634 22.9056C0.317727 22.8276 0.204597 22.7226 0.0649904 22.8097C1.0152e-06 22.9146 0.0698031 23.0495 0 23.1485Z" fill="#64C17B"/>
<path d="M11.2768 23.7123L6.25579 20.0746C4.58053 18.8631 2.90445 17.6545 1.22757 16.4489C0.837749 16.1228 0.427192 15.837 0 15.5942V15.8341C0.418598 16.2264 0.865862 16.5688 1.33589 16.8568C2.91247 18.0203 4.50109 19.1599 6.08488 20.3025C7.66872 21.4451 9.19715 22.5577 10.7617 23.6643C10.9495 23.7963 11.1107 24.0152 11.3514 24.0212C11.4212 23.8802 11.3779 23.7873 11.2768 23.7123Z" fill="#65C17C"/>
<path d="M1.55003e-06 24.8369C0.897812 25.3977 1.74749 26.0664 2.61642 26.6932C5.4294 28.7205 8.23754 30.7547 11.0409 32.796C11.1155 32.85 11.1926 32.8949 11.2672 32.943C11.4044 32.943 11.3755 32.829 11.361 32.727C11.0217 32.3012 10.5716 32.0913 10.1576 31.7974C8.31376 30.4599 6.46843 29.1253 4.62145 27.7938C3.17725 26.7652 1.76434 25.7215 0.329763 24.7019C0.226262 24.627 0.127575 24.474 -0.0168457 24.594L1.55003e-06 24.8369Z" fill="#65C17C"/>
<path d="M11.337 27.647C10.5956 27.1972 9.89273 26.6394 9.19233 26.1476C7.87648 25.2059 6.56223 24.2593 5.24964 23.3076C3.85357 22.297 2.45992 21.2804 1.05905 20.2817C0.724455 19.9976 0.369041 19.7536 -0.00244141 19.553V19.7119C0.736505 20.1648 1.42732 20.7165 2.1422 21.2113C3.45803 22.153 4.77225 23.0997 6.08485 24.0514C7.33411 24.951 8.57853 25.8507 9.82774 26.7503C10.326 27.1072 10.8363 27.4461 11.3394 27.794L11.3634 27.758C11.3706 27.7276 11.3706 27.6954 11.3634 27.665L11.337 27.647Z" fill="#4FBA6A"/>
<path d="M0 19.055C1.56936 20.1906 3.13954 21.3262 4.71051 22.4618C6.15471 23.5084 7.61816 24.546 9.07197 25.5896C9.83022 26.1355 10.5836 26.6902 11.337 27.2421L11.3634 27.2091C11.3707 27.1788 11.3707 27.1464 11.3634 27.1161L11.3394 27.0801L7.82276 24.531L4.35668 22.033L0 18.8931V19.055Z" fill="#4FBA6A"/>
<path d="M11.337 31.3385L8.08508 29.0114L3.81266 25.9285C2.67494 25.1068 1.53804 24.2831 0.401937 23.4574C0.280419 23.3492 0.143026 23.2717 -0.00244141 23.2295V23.3914C0.0168149 23.4274 0.0360692 23.4304 0.0601399 23.3914L3.18924 25.6466C4.49384 26.5842 5.79924 27.5229 7.10545 28.4625C8.3619 29.3682 9.61191 30.2769 10.8555 31.1886C11.012 31.3025 11.1757 31.4015 11.337 31.5095L11.361 31.4734C11.3683 31.4431 11.3683 31.4108 11.361 31.3805L11.337 31.3385Z" fill="#4FBA6A"/>
<path d="M0 17.8494C1.07673 18.6171 2.15266 19.3848 3.22779 20.1526C4.55164 21.1042 5.8739 22.0588 7.19453 23.0165C8.33064 23.8353 9.46674 24.6659 10.6149 25.4906C10.8377 25.686 11.0806 25.8433 11.337 25.9584C11.3563 25.938 11.3684 25.9089 11.3707 25.8775C11.3715 25.8606 11.3688 25.8437 11.3629 25.8285C11.357 25.8133 11.3481 25.8002 11.337 25.7905C10.826 25.4895 10.3315 25.1468 9.85668 24.7649C8.41245 23.7423 6.98754 22.6986 5.55294 21.661C4.1593 20.6504 2.76565 19.6338 1.36718 18.6261C0.914661 18.3022 0.454923 17.9934 0 17.6785V17.8494Z" fill="#4FBA6A"/>
<path d="M11.337 24.5909L7.17049 21.5921C5.75197 20.5924 4.33263 19.5778 2.91249 18.5481C2.03153 17.9154 1.15538 17.2826 0.264792 16.6438C0.179102 16.5649 0.0804651 16.5107 -0.0240479 16.4849V16.6468C0.598607 17.0261 1.20371 17.4487 1.78842 17.9123C3.11709 18.857 4.43613 19.8167 5.75996 20.7733C7.15601 21.781 8.54968 22.7976 9.94819 23.8052C10.3983 24.1321 10.8604 24.438 11.3153 24.7528C11.3258 24.7445 11.3347 24.7335 11.3415 24.7206C11.3483 24.7077 11.3529 24.6931 11.3549 24.6779C11.357 24.6626 11.3564 24.647 11.3533 24.632C11.3503 24.6171 11.3447 24.6031 11.337 24.5909Z" fill="#4FBA6A"/>
<path d="M0.0649729 22.8246C0.737523 23.2328 1.39088 23.6884 2.02187 24.1892C3.3409 25.1288 4.65673 26.0755 5.96936 27.0291C7.36542 28.0368 8.75909 29.0564 10.1599 30.058C10.5336 30.3664 10.9283 30.6334 11.3394 30.8558C11.3535 30.8312 11.3611 30.8019 11.3611 30.7718C11.3611 30.7416 11.3535 30.7122 11.3394 30.6878C10.8172 30.243 10.2747 29.8365 9.71465 29.4702L3.45644 24.9419C2.39736 24.1801 1.33908 23.4164 0.281606 22.6507C0.219624 22.5966 0.149023 22.5598 0.074603 22.5427C0.0432586 22.5455 0.0135741 22.5614 -0.00964355 22.5877V22.7467C0.024054 22.7707 0.024054 22.8246 0.0649729 22.8246Z" fill="#4FBA6A"/>
<path d="M0 20.2606L3.07134 22.4918C4.22509 23.3275 5.38044 24.1611 6.53741 24.9929L10.8098 28.0758L11.337 28.4476L11.3634 28.4146C11.3707 28.3843 11.3707 28.352 11.3634 28.3216L11.3394 28.2887L8.21029 26.0275C6.90568 25.0878 5.60111 24.1492 4.2965 23.2115C3.04807 22.3119 1.80044 21.4122 0.553613 20.5125C0.387262 20.368 0.202539 20.2595 0.00722014 20.1917L0 20.2606Z" fill="#4FBA6A"/>
<path d="M11.337 26.4413L7.75534 23.8653C6.45072 22.9276 5.14614 21.9889 3.84154 21.0493C2.6926 20.2216 1.54607 19.3919 0.401937 18.5602C0.280419 18.452 0.143026 18.3746 -0.00244141 18.3323V18.4133C1.13848 19.241 2.27057 20.0677 3.39384 20.8933C4.51711 21.7191 5.67485 22.5518 6.86716 23.3914C8.35626 24.4651 9.84621 25.5347 11.337 26.6003L11.361 26.5673C11.3683 26.537 11.3683 26.5047 11.361 26.4743L11.337 26.4413Z" fill="#4FBA6A"/>
<path d="M11.337 28.8524C10.6534 28.4745 10.0324 27.9527 9.38249 27.4909C8.06584 26.5522 6.75404 25.6015 5.44223 24.6539L1.25646 21.625C0.840044 21.3251 0.418818 21.0252 0 20.7253V20.8872L3.58162 23.4603C4.88622 24.414 6.18761 25.3586 7.48579 26.2943C8.63951 27.122 9.78929 27.9537 10.935 28.7894C11.0565 28.8976 11.1939 28.9751 11.3394 29.0173C11.3578 28.996 11.3697 28.9674 11.3731 28.9363C11.3728 28.9198 11.3694 28.9036 11.3631 28.8889C11.3568 28.8744 11.3479 28.8618 11.337 28.8524Z" fill="#4FBA6A"/>
<path d="M0.0626337 21.5442C1.48116 22.5758 2.89648 23.5995 4.30858 24.6151C5.61319 25.5568 6.91941 26.4954 8.22716 27.4311C9.20923 28.1388 10.1865 28.8526 11.1685 29.5603C11.2246 29.5962 11.2824 29.6272 11.3418 29.6533L11.3659 29.6173C11.3732 29.588 11.3732 29.5566 11.3659 29.5273L11.3394 29.4914C10.5162 28.8916 9.68821 28.3218 8.86502 27.731C7.55082 26.7853 6.23657 25.8387 4.92237 24.891C3.52631 23.8834 2.13265 22.8668 0.734184 21.8621C0.511295 21.6636 0.268538 21.5023 0.012085 21.3823V21.5442C0.0241202 21.5922 0.0409705 21.5922 0.0626337 21.5442Z" fill="#4FBA6A"/>
<path d="M-3.53774e-05 24.591C0.738912 25.0438 1.42972 25.5986 2.14461 26.0905C3.46043 27.0321 4.77466 27.9787 6.0873 28.9304C7.33651 29.8301 8.58093 30.7297 9.83019 31.6294C10.3308 31.9863 10.8387 32.3252 11.3417 32.673L11.3683 32.622C11.3713 32.5925 11.3693 32.5625 11.3622 32.534C11.3552 32.5055 11.3433 32.4793 11.3273 32.4571C10.7039 31.9353 10.0396 31.5004 9.40172 31.0296C7.32208 29.5462 5.23921 28.0547 3.15314 26.5553L0.505437 24.645C0.381679 24.5388 0.245191 24.4578 0.101062 24.405C0.0408864 24.405 0.0264431 24.471 -0.00244141 24.513L-3.53774e-05 24.591Z" fill="#4FBA6A"/>
<path d="M0 17.2078C1.41371 18.2294 2.82663 19.252 4.23873 20.2756C5.65082 21.2993 7.06535 22.3189 8.48228 23.3345L11.337 25.3948C11.3536 25.3735 11.3629 25.345 11.3629 25.3153C11.3629 25.2856 11.3536 25.2571 11.337 25.2359C9.91847 24.2062 8.4975 23.1756 7.07419 22.144C5.51121 21.0164 3.94749 19.8928 2.38294 18.7732C1.58622 18.2004 0.79431 17.6216 0 17.0488V17.2078Z" fill="#4FBA6A"/>
<path d="M11.337 24.0303C10.2033 23.2056 9.06962 22.3749 7.93352 21.5532C6.79741 20.7315 5.62282 19.8828 4.46745 19.0491L0.553664 16.2331L-0.00476074 15.8433V16.0052L3.58167 18.5932C4.88627 19.5309 6.19085 20.4706 7.49547 21.4122L10.9351 23.8833C11.0545 23.9941 11.1915 24.0718 11.337 24.1112L11.3539 24.0722L11.337 24.0303Z" fill="#4FBA6A"/>
<path d="M11.337 30.1329C9.92172 29.1104 8.50878 28.0817 7.09106 27.0621C5.7865 26.1204 4.48028 25.1817 3.17248 24.2461C2.20005 23.5463 1.22922 22.8466 0.260007 22.1469C0.184004 22.0745 0.0909076 22.0354 -0.00476074 22.0359V22.1139C0.0241238 22.1589 0.0409731 22.2158 0.0746705 22.2608C1.05914 23.0435 2.08452 23.7393 3.09546 24.471C5.18955 25.9865 7.28443 27.4999 9.38014 29.0114C9.93614 29.4132 10.4922 29.818 11.0506 30.2109C11.1207 30.2753 11.2044 30.3128 11.2913 30.3189C11.3028 30.3163 11.3139 30.311 11.3237 30.3031C11.3336 30.2953 11.3422 30.2851 11.3489 30.2731C11.3556 30.2611 11.3604 30.2476 11.3629 30.2333C11.3654 30.219 11.3656 30.2043 11.3635 30.1899L11.337 30.1329Z" fill="#4FBA6A"/>
<path d="M0 24.5131L0.06499 24.4381C0.100891 24.3874 0.125192 24.3255 0.135353 24.2591C0.145515 24.1926 0.141167 24.124 0.12276 24.0602C0.110702 24.0184 0.0889182 23.9818 0.0601752 23.9553H0V24.5131Z" fill="#76C88B"/>
<path d="M0.0649898 22.1918L0 22.1108V22.5936H0.0625846C0.102833 22.539 0.12536 22.4676 0.125804 22.3933C0.126249 22.3191 0.104579 22.2473 0.0649898 22.1918Z" fill="#70C686"/>
<path d="M0.0625846 21.5442H0V21.946C0.105908 21.8321 0.0481424 21.6792 0.0625846 21.5442Z" fill="#70C686"/>
<path d="M0.0649902 22.8246L0 22.7466V23.1484C0.0938732 23.0645 0.0529551 22.9356 0.0649902 22.8246Z" fill="#73C789"/>
<path d="M0.0625846 23.3914H0V23.7903C0.105908 23.6913 0.0481424 23.5294 0.0625846 23.3914Z" fill="#75C88B"/>
<path d="M10.3092 8.14214C10.4343 8.37604 10.6895 8.39705 10.8243 8.61896C10.843 8.65128 10.8631 8.68226 10.8845 8.71196C11.6066 9.28771 12.3575 9.80056 13.0989 10.3373L19.2392 14.7877C19.7494 15.1566 20.2429 15.5585 20.7772 15.8733C20.807 15.8853 20.839 15.8853 20.8687 15.8733L21.5908 16.4161C21.6151 16.4427 21.6453 16.4595 21.6775 16.4641C22.1087 16.2303 22.522 15.9483 22.9123 15.6214C23.9777 14.8597 25.0433 14.093 26.1088 13.3213C26.2243 13.2343 26.3687 13.1743 26.3928 12.9704C26.2604 12.5775 25.9114 12.5475 25.6827 12.3316C24.9342 11.7528 24.1567 11.231 23.4057 10.6552C21.663 9.4057 19.93 8.14315 18.2066 6.8676C17.4051 6.3278 16.6276 5.73402 15.8357 5.17322C15.5733 5.02927 15.3543 4.74737 15.0726 4.6814C14.3505 5.19421 13.6044 5.70102 12.8751 6.21984C12.0687 6.79561 11.2696 7.38045 10.468 7.95923C10.4006 8.00421 10.3357 8.04314 10.3092 8.14214Z" fill="#DFDFE1"/>
<path d="M26.3591 12.9462C26.1353 13.27 25.8127 13.402 25.5286 13.6089C24.2385 14.5506 22.9387 15.4772 21.6414 16.4099C21.4993 16.6798 21.586 16.9797 21.5619 17.2646C21.5619 17.4535 21.5619 17.6394 21.5619 17.8284C21.5619 18.0173 21.5619 18.2362 21.5619 18.4281C21.5619 18.4731 21.5619 18.5181 21.5619 18.5631C21.5619 18.7161 21.5619 18.863 21.5619 19.0219C21.5619 19.0849 21.5619 19.1509 21.5619 19.2139C21.5619 19.3638 21.5619 19.5138 21.5619 19.6637V20.4914C21.5619 20.6174 21.5619 20.7463 21.5619 20.8723C21.5619 20.9382 21.5619 21.0012 21.5619 21.0642C21.5619 21.2111 21.5619 21.3641 21.5619 21.5081V22.2728C21.5619 22.4197 21.5619 22.5727 21.5619 22.7166C21.5619 22.7826 21.5619 22.8456 21.5619 22.9085C21.5619 23.0584 21.5619 23.2084 21.5619 23.3554V24.1171C21.5619 24.2671 21.5619 24.417 21.5619 24.561V25.1937C21.5619 25.2567 21.5619 25.3196 21.5619 25.3827C21.564 25.4691 21.5904 25.5519 21.6366 25.6166C22.1179 25.4636 22.5055 25.0587 22.9315 24.7619C24.0075 24.0181 25.0665 23.2384 26.1304 22.4677C26.2628 22.3717 26.4313 22.3178 26.477 22.0928C26.5168 22.0233 26.5432 21.9432 26.554 21.8589C26.5577 21.795 26.5577 21.7309 26.554 21.667C26.554 21.52 26.554 21.3671 26.554 21.2261V21.0342C26.554 20.8872 26.554 20.7343 26.554 20.5904V19.2079C26.554 19.0819 26.554 18.953 26.554 18.827V18.6351C26.554 18.4881 26.554 18.3352 26.554 18.1912C26.554 18.1253 26.554 18.0623 26.554 17.9993C26.554 17.8494 26.554 17.6994 26.554 17.5525V16.7938C26.554 16.6438 26.554 16.4939 26.554 16.3469C26.554 16.284 26.554 16.218 26.554 16.155C26.554 16.0051 26.554 15.8551 26.554 15.7081V14.9494C26.554 14.8025 26.554 14.6495 26.554 14.5146C26.554 14.4576 26.554 14.3976 26.554 14.3376C26.554 14.1487 26.5156 13.9658 26.5252 13.7768C26.5315 13.7413 26.5356 13.7052 26.5372 13.6689C26.5564 13.486 26.4914 13.312 26.5011 13.1321C26.5014 13.0951 26.4948 13.0585 26.4819 13.0252C26.4689 12.9919 26.4499 12.9628 26.4265 12.9402C26.4155 12.9351 26.4039 12.933 26.3923 12.9341C26.3806 12.9351 26.3693 12.9392 26.3591 12.9462Z" fill="#D7D7D9"/>
<path d="M26.3591 12.9464H26.4217C26.9732 12.6195 27.5078 12.2499 28.0223 11.8398C29.5652 10.7542 31.0864 9.62063 32.6293 8.54099C32.6794 8.49364 32.7377 8.46138 32.7995 8.44684C32.8613 8.43222 32.925 8.43572 32.9856 8.457C33.0457 8.2021 32.9061 8.09717 32.7617 7.99521L28.3689 4.81934C26.193 3.24591 24.0163 1.67048 21.8387 0.0930576C21.7865 0.039733 21.7222 0.00815653 21.6549 0.00277647C21.5875 -0.00260357 21.5205 0.0184839 21.4632 0.0630682C19.3354 1.60851 17.2052 3.14794 15.0726 4.68139C15.2981 4.89893 15.5399 5.08876 15.7947 5.24819C17.2678 4.16857 18.7553 3.10396 20.2429 2.03635C20.3118 1.97327 20.3937 1.93607 20.479 1.92917C20.5643 1.92226 20.6494 1.94592 20.7243 1.99736C20.9995 2.18282 21.3068 2.28193 21.6197 2.28611C21.9326 2.29029 22.2416 2.19942 22.5199 2.02136C22.585 1.97689 22.659 1.95638 22.7332 1.96222C22.8073 1.96806 22.8786 2.00001 22.9387 2.05434C25.2976 3.78171 27.6829 5.4851 30.0514 7.21849C30.1501 7.29042 30.321 7.32342 30.1453 7.55132C29.6927 8.15112 29.7409 8.50199 30.3089 8.93981C30.3204 8.94877 30.33 8.9611 30.3367 8.97578C30.3434 8.99046 30.3471 9.00696 30.3475 9.0238C28.807 10.0884 27.3026 11.249 25.7453 12.2926C25.7069 12.3161 25.6732 12.3499 25.6466 12.3916C25.8704 12.5955 26.1569 12.6885 26.3591 12.9464Z" fill="#93D5A7"/>
<path d="M26.4795 13.7501C26.4121 13.939 26.506 14.1279 26.4795 14.3198C26.6696 14.3828 26.8044 14.2238 26.9488 14.1219C28.8672 12.7484 30.7759 11.3659 32.692 9.99539C32.7973 9.92886 32.8945 9.84407 32.9808 9.74352V9.17969C32.7449 9.25794 32.5234 9.39237 32.3285 9.57555C30.5473 10.8801 28.7445 12.1396 26.9657 13.4502C26.8115 13.5689 26.6487 13.6693 26.4795 13.7501Z" fill="#7ACB91"/>
<path d="M26.4819 15.6843V16.1641C26.5974 16.2301 26.6889 16.1431 26.7804 16.0801L30.9614 13.0752C31.5198 12.6734 32.071 12.2625 32.6462 11.8757C32.7724 11.7961 32.889 11.6952 32.9928 11.5758V11.027C32.8364 10.991 32.7305 11.1259 32.6149 11.2099C30.7086 12.5974 28.7975 13.9729 26.8815 15.3364C26.7343 15.4252 26.5995 15.5426 26.4819 15.6843Z" fill="#7ACB91"/>
<path d="M26.4723 13.1052C26.3784 13.2971 26.5107 13.486 26.4843 13.6749C26.6287 13.7919 26.725 13.642 26.8309 13.57C27.9453 12.7453 29.0862 11.9356 30.2175 11.1259C31.0046 10.5651 31.7797 9.9743 32.5788 9.43451C32.7193 9.33619 32.8536 9.22493 32.9808 9.10162L32.976 8.6968C32.8267 8.56486 32.7112 8.6968 32.5957 8.78078C30.6388 10.1962 28.6675 11.5908 26.7226 13.0092C26.6614 13.0636 26.5902 13.0976 26.5156 13.1082L26.4723 13.1052Z" fill="#7ACB91"/>
<path d="M26.4867 18.1705V18.6533C26.8068 18.6383 27.0259 18.3534 27.2786 18.1734C29.0429 16.9109 30.8025 15.6334 32.574 14.3739C32.7274 14.2806 32.866 14.1536 32.9832 13.999V13.5161C32.8412 13.4592 32.7425 13.5701 32.6294 13.6511C30.7262 15.0286 28.8215 16.3991 26.9152 17.7626C26.744 17.8449 26.5954 17.9864 26.4867 18.1705Z" fill="#7ACB91"/>
<path d="M26.4843 16.326V16.7939C26.7057 16.8178 26.8622 16.6289 27.0306 16.494C28.9129 15.1485 30.7976 13.8019 32.6847 12.4544C32.8003 12.3837 32.9016 12.2812 32.9807 12.1545V11.6687C32.6472 11.8053 32.3335 12.0078 32.0516 12.2685C30.2512 13.561 28.4412 14.8595 26.6527 16.1461C26.585 16.1868 26.5269 16.2488 26.4843 16.326Z" fill="#7ACB91"/>
<path d="M26.4867 16.9648V17.3696C26.6119 17.4806 26.7106 17.3696 26.8068 17.2977C28.5591 16.0082 30.3331 14.7697 32.083 13.4951C32.404 13.3069 32.7061 13.0724 32.9832 12.7963V12.3105C32.6245 12.3345 32.3791 12.6584 32.0902 12.8563C30.711 13.819 29.3486 14.8236 27.979 15.8073C27.4639 16.1731 26.9272 16.467 26.4867 16.9648Z" fill="#7ACB91"/>
<path d="M26.489 21.2173V21.7031C26.6923 21.6757 26.8839 21.571 27.0378 21.4032C28.9169 20.0517 30.8 18.7002 32.6871 17.3487C32.8024 17.2775 32.9036 17.175 32.9831 17.0488V16.566C32.7424 16.524 32.5836 16.7459 32.4078 16.8659C30.8698 17.9935 29.3221 19.0821 27.7864 20.2037C27.4446 20.4526 27.098 20.6925 26.7538 20.9414C26.6437 20.9949 26.5508 21.0918 26.489 21.2173Z" fill="#7ACB91"/>
<path d="M26.4795 14.4818V14.9616C26.5854 15.0246 26.6648 14.9436 26.7467 14.8836C28.7349 13.4471 30.7255 12.0227 32.7137 10.5892C32.8191 10.5235 32.9099 10.4267 32.9784 10.3073V9.82446C32.6641 9.94919 32.3687 10.1388 32.1047 10.3853C30.5425 11.5218 28.9756 12.6285 27.4086 13.777C27.0828 13.9771 26.7718 14.2129 26.4795 14.4818Z" fill="#7ACB91"/>
<path d="M26.4843 17.5286V18.0114C26.7851 17.9784 27.009 17.7115 27.2521 17.5496C28.6963 16.4909 30.1693 15.4504 31.6184 14.4037C32.0952 14.1041 32.5509 13.755 32.9807 13.3601V12.8743C32.5621 13.103 32.1596 13.3748 31.7772 13.687C30.4309 14.6487 29.0886 15.6153 27.7503 16.5869C27.3243 16.8928 26.8886 17.1777 26.4843 17.5286Z" fill="#7ACB91"/>
<path d="M26.4867 19.3758V19.8587C26.5926 19.9157 26.672 19.8347 26.7539 19.7747L32.7136 15.4863C32.8186 15.4186 32.9099 15.3222 32.9808 15.2044V14.7216C32.8147 14.6856 32.6968 14.8266 32.5716 14.9165C30.8867 16.134 29.1898 17.3336 27.5169 18.5692C27.1679 18.8241 26.7756 18.998 26.4867 19.3758Z" fill="#7ACB91"/>
<path d="M26.4867 20.5785V21.0613C26.5345 21.0702 26.5833 21.0662 26.6298 21.0497C26.6763 21.0331 26.7194 21.0044 26.7563 20.9654C28.7493 19.5199 30.7519 18.1074 32.7352 16.6529C32.8243 16.5869 32.9375 16.551 32.976 16.41V16.0022C32.8364 15.8912 32.7352 16.0022 32.6245 16.0891C30.8602 17.3937 29.067 18.6412 27.3003 19.9488C27.0055 20.1073 26.7313 20.3195 26.4867 20.5785Z" fill="#7ACB91"/>
<path d="M26.4843 15.1204V15.5222C26.6022 15.6242 26.6816 15.5042 26.7707 15.4413C28.1475 14.4726 29.5074 13.468 30.8818 12.4903C31.5895 11.9955 32.2971 11.4947 32.9807 10.9489V10.4661C32.6341 10.496 32.379 10.7959 32.0998 11.0029C30.6363 12.0615 29.1657 13.1021 27.7046 14.1697C27.2713 14.4303 26.862 14.7491 26.4843 15.1204Z" fill="#7ACB91"/>
<path d="M26.489 18.8091V19.2169C26.6602 19.2117 26.8245 19.1322 26.9536 18.992C28.4868 17.8644 30.0442 16.7938 31.5799 15.6542C31.9457 15.3843 32.3019 15.1024 32.6919 14.8655C32.8148 14.814 32.9178 14.707 32.9807 14.5656V14.1548C32.9181 14.0858 32.8604 14.1278 32.805 14.1548C31.705 14.9645 30.593 15.7532 29.5002 16.5479C28.5952 17.2046 27.6853 17.8494 26.7803 18.5092C26.6614 18.5708 26.56 18.6753 26.489 18.8091Z" fill="#7ACB91"/>
<path d="M26.489 20.0146V20.4225C26.7682 20.4944 26.9391 20.2156 27.1365 20.0746C29.0621 18.6921 30.9877 17.3156 32.9133 15.9241C32.9396 15.9014 32.9637 15.8753 32.9855 15.8462V15.3633C32.6702 15.3843 32.4415 15.6632 32.1912 15.8431C30.6435 16.9647 29.0814 18.0504 27.5457 19.1929C27.1726 19.4228 26.8187 19.6981 26.489 20.0146Z" fill="#7ACB91"/>
<path d="M21.6437 25.6285V25.3947C21.4753 25.2807 21.3549 25.4366 21.2346 25.5236C19.7085 26.6392 18.1729 27.7338 16.642 28.8224C14.9571 30.0219 13.2722 31.2395 11.6017 32.4541C11.5044 32.5115 11.4169 32.592 11.3442 32.691C11.3442 32.778 11.3442 32.8709 11.2792 32.9279C11.3996 33.0688 11.4766 32.9069 11.556 32.85C14.8889 30.4508 18.2218 28.0517 21.5547 25.6525C21.5839 25.6417 21.6136 25.6337 21.6437 25.6285Z" fill="#7BCB92"/>
<path d="M32.9855 8.45694C32.9253 8.33692 32.8964 8.22001 32.7328 8.33692C30.6772 9.82839 28.6192 11.3129 26.5588 12.7903C26.5085 12.8369 26.4626 12.8902 26.4216 12.9492C26.4385 13.0002 26.4553 13.0542 26.4746 13.1052H26.489C26.8991 12.9201 27.2876 12.668 27.6444 12.3555C29.1287 11.2979 30.6114 10.2373 32.0925 9.17364C32.3886 8.96372 32.6726 8.7268 32.9807 8.54085L32.9855 8.45694Z" fill="#7BCB91"/>
<path d="M26.5011 21.859V22.1049C27.7736 21.1972 29.0469 20.2906 30.321 19.3849L32.7978 17.5856C32.9037 17.5136 33.0361 17.4356 32.9808 17.2077C32.8243 17.1627 32.716 17.2977 32.6029 17.3816L29.1272 19.8857C28.3666 20.4345 27.6059 20.9833 26.8429 21.5231C26.7078 21.5969 26.5902 21.7125 26.5011 21.859Z" fill="#7BCB92"/>
<path d="M26.501 21.8591C27.9693 20.8004 29.4328 19.7388 30.9035 18.6832C31.587 18.1853 32.2779 17.6936 32.9807 17.2077V17.0518C32.2369 17.5706 31.4884 18.0834 30.7494 18.6112C29.4063 19.5729 28.0664 20.5395 26.7297 21.5111C26.6455 21.5711 26.5685 21.6401 26.489 21.7031C26.489 21.7571 26.501 21.8081 26.501 21.8591Z" fill="#67C27E"/>
<path d="M26.4842 15.1203L30.0369 12.5743L32.9807 10.4661V10.3071C32.119 10.9069 31.2549 11.5247 30.3956 12.1425C29.091 13.0781 27.7872 14.0178 26.4842 14.9614C26.4818 15.0154 26.4818 15.0664 26.4842 15.1203Z" fill="#67C27E"/>
<path d="M32.9808 13.3601C31.758 14.2338 30.5361 15.1065 29.3149 15.9782C28.3714 16.6539 27.4286 17.3316 26.4867 18.0114V18.1704L29.7097 15.8702C30.8025 15.0865 31.8928 14.3018 32.9808 13.516V13.3601Z" fill="#67C27E"/>
<path d="M26.489 20.0146L30.0393 17.4685L32.9807 15.3693V15.2043C32.184 15.7682 31.3873 16.329 30.593 16.8987C29.3534 17.7984 28.1162 18.6831 26.8766 19.5737C26.7466 19.6668 26.619 19.7627 26.4914 19.8736L26.489 20.0146Z" fill="#67C27E"/>
<path d="M26.489 18.8092L29.1728 16.8599C30.4101 15.9663 31.6489 15.0756 32.8893 14.1879C32.9189 14.1734 32.9495 14.1623 32.9807 14.1549V13.999C32.4994 14.3259 32.0179 14.6408 31.551 14.9766C30.1982 15.9463 28.8487 16.9199 27.5024 17.8976C27.1606 18.1465 26.8236 18.4014 26.4843 18.6533L26.489 18.8092Z" fill="#67C27E"/>
<path d="M32.9807 16.4099L29.4328 18.959L26.4915 21.0582C26.4915 21.1122 26.4915 21.1632 26.4915 21.2142L30.1838 18.5931L32.9831 16.5659L32.9807 16.4099Z" fill="#67C27E"/>
<path d="M32.9807 8.54077C32.5186 8.62475 32.1985 9.01759 31.8206 9.29654C30.3764 10.3162 28.9322 11.3747 27.488 12.4184L26.4843 13.1351C26.5444 13.3871 26.6503 13.1771 26.696 13.1351C27.4182 12.6283 28.121 12.1065 28.8335 11.5937C30.1429 10.6481 31.4515 9.70634 32.7593 8.76874C32.8288 8.73332 32.9015 8.70914 32.9759 8.69675L32.9807 8.54077Z" fill="#67C27E"/>
<path d="M26.4866 16.9648C27.8988 15.9412 29.3117 14.9195 30.7254 13.8999C31.474 13.3601 32.2298 12.8383 32.9807 12.3105V12.1545C32.2466 12.6673 31.5077 13.1711 30.7784 13.696C29.416 14.6716 28.0568 15.6513 26.7009 16.6349C26.6263 16.6889 26.5564 16.7489 26.4843 16.8059L26.4866 16.9648Z" fill="#67C27E"/>
<path d="M32.9807 14.5657C32.1792 15.1445 31.3776 15.7292 30.5737 16.308L27.1101 18.8001C26.9055 18.944 26.696 19.076 26.489 19.2169C26.489 19.2679 26.489 19.3219 26.489 19.3759C27.2111 18.9411 27.9019 18.3832 28.6048 17.8764C29.9768 16.9108 31.344 15.9181 32.7136 14.9345C32.805 14.8685 32.894 14.7905 32.9831 14.7216L32.9807 14.5657Z" fill="#67C27E"/>
<path d="M32.9831 15.8462C32.3378 16.23 31.7124 16.6636 31.1105 17.1447C29.8637 18.0174 28.6313 18.926 27.3893 19.8137C27.1056 20.0479 26.805 20.2487 26.4915 20.4135C26.4915 20.4645 26.4915 20.5185 26.4915 20.5694C27.052 20.2431 27.5947 19.8715 28.1162 19.4569C29.4352 18.5212 30.7447 17.5615 32.0613 16.6229C32.3487 16.3689 32.6589 16.1576 32.9856 15.9931L32.9831 15.8462Z" fill="#67C27E"/>
<path d="M26.4795 14.4817C27.1174 14.0948 27.7047 13.627 28.3209 13.1951C29.6303 12.2595 30.9325 11.3148 32.237 10.3732C32.4778 10.1932 32.7329 10.0073 32.9808 9.82436C32.988 9.79809 32.988 9.76961 32.9808 9.74341C32.6078 9.85137 32.3189 10.1573 31.9963 10.3852C30.1574 11.6927 28.32 13.0042 26.4843 14.3197L26.4795 14.4817Z" fill="#67C27E"/>
<path d="M32.9808 9.10156C32.4712 9.40792 31.9762 9.75032 31.498 10.1272C30.1333 11.0989 28.7758 12.0855 27.4062 13.0542C27.122 13.3138 26.81 13.5228 26.4794 13.6749C26.4758 13.6997 26.4758 13.7251 26.4794 13.7499C26.6214 13.9178 26.7202 13.7289 26.814 13.6629C27.6661 13.0631 28.4989 12.4334 29.3631 11.8216C30.4438 11.0419 31.5293 10.2712 32.6125 9.49446C32.7425 9.40146 32.8532 9.28454 32.9832 9.17955C32.9895 9.15396 32.9887 9.12648 32.9808 9.10156Z" fill="#67C27E"/>
<path d="M32.9808 10.949C32.3359 11.3339 31.7105 11.7676 31.1081 12.2475C29.8613 13.1232 28.6265 14.0318 27.3845 14.9195C27.1028 15.1579 26.8019 15.3589 26.4867 15.5193C26.4867 15.5733 26.4867 15.6273 26.4867 15.6812C27.0558 15.3473 27.6073 14.9686 28.1379 14.5477C29.4473 13.614 30.7535 12.6743 32.0565 11.7287C32.3694 11.5038 32.6775 11.2609 32.988 11.024C32.9923 10.9987 32.9898 10.9723 32.9808 10.949Z" fill="#67C27E"/>
<path d="M26.4843 17.5287C27.1069 17.1494 27.712 16.7268 28.2967 16.2631C29.6639 15.2975 31.0214 14.3138 32.3886 13.3332C32.5932 13.1863 32.7906 13.0333 32.9904 12.8744C32.9975 12.8491 32.9975 12.8216 32.9904 12.7964C32.3873 13.1421 31.8035 13.5379 31.2429 13.981C29.9142 14.9227 28.5952 15.8883 27.2714 16.8359C27.03 17.0549 26.7671 17.2343 26.489 17.3697C26.4866 17.4237 26.4866 17.4777 26.4843 17.5287Z" fill="#67C27E"/>
<path d="M26.4843 16.3261L30.179 13.684C31.1145 13.0163 32.0484 12.3445 32.9807 11.6687C32.985 11.6564 32.9872 11.6431 32.9872 11.6297C32.9872 11.6163 32.985 11.6031 32.9807 11.5908C32.5884 11.6957 32.2779 12.0196 31.9361 12.2596C30.5858 13.2102 29.2499 14.1908 27.9068 15.1565C27.4254 15.4954 26.9608 15.8282 26.4866 16.1641L26.4843 16.3261Z" fill="#67C27E"/>
<path d="M10.6293 8.85571L6.02953 12.1545L2.88119 14.4187C2.7464 14.5147 2.6116 14.6196 2.48163 14.7186C2.48716 14.7414 2.49442 14.7635 2.50329 14.7845C3.24464 15.3513 3.24946 15.7172 2.52495 16.284C2.25055 16.4999 2.53939 16.5629 2.60438 16.6108C3.26631 17.1087 3.93546 17.5856 4.60219 18.0684C6.38982 19.3579 8.1782 20.6484 9.96739 21.9399C10.0213 21.9922 10.0886 22.0183 10.1568 22.0134C10.225 22.0084 10.2894 21.9727 10.3381 21.9129C10.619 21.6701 10.9505 21.534 11.2923 21.5212C11.6341 21.5085 11.9716 21.6195 12.2637 21.841C12.3259 21.896 12.4004 21.9255 12.4767 21.9255C12.553 21.9255 12.6275 21.896 12.6897 21.841C14.5736 20.4755 16.4623 19.111 18.3558 17.7475L20.5534 16.1641C20.5596 16.1564 20.5642 16.147 20.5668 16.1366C20.5694 16.1262 20.5699 16.1151 20.5682 16.1044C20.5666 16.0938 20.5628 16.0837 20.5572 16.0753C20.5517 16.0669 20.5446 16.0603 20.5365 16.0561C20.3881 16.0238 20.2353 16.0555 20.1033 16.146C17.5107 17.2366 14.6887 17.1194 12.1602 15.8162C11.3395 15.4063 10.6158 14.7439 10.0564 13.8908C9.65202 13.2795 9.44561 12.502 9.47766 11.7108C9.50975 10.9196 9.77796 10.1719 10.2297 9.61445C10.4006 9.38951 10.6462 9.22457 10.7112 8.87969C10.7088 8.86945 10.7043 8.86016 10.6981 8.85275C10.6919 8.84541 10.6842 8.84023 10.6759 8.8378C10.6676 8.83531 10.6588 8.83571 10.6506 8.83888C10.6425 8.84198 10.6351 8.84784 10.6293 8.85571Z" fill="#4DB969"/>
<path d="M21.6413 17.2886V16.4099H21.5884C20.8037 16.8958 20.0599 17.4715 19.2993 18.0173L15.2965 20.8933L11.8183 23.3914C11.6509 23.5335 11.4665 23.6418 11.272 23.7123C11.3183 23.8079 11.3409 23.9185 11.337 24.0302C11.5608 24.0541 11.7149 23.8652 11.8857 23.7303L19.2488 18.4461C19.8168 18.0383 20.3849 17.6365 20.9481 17.2196C21.1071 17.066 21.2939 16.9631 21.4921 16.9197C21.533 17.0247 21.4921 17.1476 21.5426 17.2496C21.5557 17.2813 21.5769 17.3067 21.6028 17.3216L21.6413 17.2886Z" fill="#7BCB91"/>
<path d="M20.5558 16.077V16.164C20.6665 16.068 20.8374 16.077 20.8711 15.8641C20.8529 15.8581 20.8339 15.8581 20.8157 15.8641C20.6906 15.8641 20.5702 15.8941 20.5558 16.077Z" fill="#63C27C"/>
<path d="M10.6293 8.85565H10.7063C10.8748 8.90664 10.947 8.85565 10.8844 8.62176C10.8645 8.61859 10.8443 8.61859 10.8242 8.62176L10.6293 8.85565Z" fill="#68C481"/>
<path d="M21.6414 20.9083V20.4974C21.473 20.3835 21.355 20.5394 21.2322 20.6264C19.7086 21.745 18.1705 22.8366 16.6421 23.9252C14.9572 25.1248 13.2723 26.3423 11.6018 27.5569C11.5044 27.6144 11.417 27.6948 11.3442 27.7938V28.2736C11.4742 28.3426 11.5705 28.2406 11.6692 28.1717C13.6461 26.7582 15.6215 25.3397 17.5952 23.9162C18.7987 23.0555 19.9854 22.1828 21.1889 21.3372C21.3526 21.2202 21.5451 21.1392 21.6414 20.9083Z" fill="#7ACB91"/>
<path d="M21.6414 22.1141V21.7032C21.4946 21.5922 21.4007 21.7452 21.2924 21.8171C19.8337 22.8427 18.404 23.9164 16.9405 24.942C15.1738 26.2075 13.4119 27.4851 11.6451 28.7476C11.5152 28.8167 11.4071 28.9367 11.337 29.0895C11.337 29.2214 11.337 29.3564 11.337 29.4883C11.4838 29.6083 11.5777 29.4553 11.686 29.3834C12.9569 28.4837 14.2134 27.5661 15.477 26.6604C17.4219 25.2609 19.3636 23.8614 21.302 22.4619C21.4422 22.3943 21.5612 22.2724 21.6414 22.1141Z" fill="#7ACB91"/>
<path d="M11.337 29.0894L14.1676 27.0471C16.1815 25.5937 18.197 24.1392 20.214 22.6837C20.6834 22.3448 21.1648 22.0299 21.6414 21.703C21.6414 21.6491 21.6414 21.5981 21.6414 21.5471C21.4946 21.4272 21.4007 21.5831 21.2948 21.6551C19.8747 22.6507 18.469 23.6913 17.056 24.6959C15.2524 25.9915 13.4496 27.291 11.6475 28.5946C11.5169 28.6587 11.4075 28.7761 11.337 28.9274V29.0114V29.0894Z" fill="#66C27D"/>
<path d="M21.6414 19.6999V19.217C21.5234 19.16 21.4392 19.259 21.3477 19.322L14.3385 24.3661C13.4383 25.0139 12.5429 25.6677 11.6403 26.3034C11.5262 26.3786 11.4249 26.4804 11.3418 26.6033V27.0832C11.4621 27.1521 11.5464 27.0502 11.6354 26.9872C13.9847 25.3048 16.3291 23.6074 18.6735 21.919C19.5641 21.2773 20.4547 20.6355 21.3453 20.0027C21.4607 19.9301 21.5618 19.8267 21.6414 19.6999Z" fill="#7ACB91"/>
<path d="M21.6414 17.2886H21.586C21.2972 17.6574 20.9072 17.8344 20.5582 18.0863C17.9852 19.9546 15.3976 21.7989 12.8221 23.6642C12.4539 23.9311 12.0832 24.2041 11.7053 24.459C11.5545 24.5351 11.4259 24.667 11.337 24.8368V25.1547C11.4814 25.2987 11.5994 25.1757 11.7173 25.0888C13.1423 24.0512 14.5744 23.0315 16.0042 21.9999C17.7854 20.7134 19.5714 19.4418 21.3477 18.1493C21.4041 18.1098 21.4587 18.0668 21.5114 18.0203C21.5587 17.97 21.6007 17.9126 21.6366 17.8494L21.6414 17.2886Z" fill="#7ACB91"/>
<path d="M11.337 24.837C12.6464 23.8893 13.9559 22.9357 15.2677 21.994C16.5795 21.0523 17.9491 20.0687 19.297 19.1181C20.0191 18.6113 20.7075 18.0204 21.4633 17.5916C21.5716 17.5316 21.5788 17.4146 21.5764 17.2917C21.4464 17.1778 21.3526 17.3097 21.2587 17.3787C19.5738 18.5992 17.8889 19.8078 16.204 21.0254C14.7068 22.105 13.2048 23.1906 11.6981 24.2582C11.561 24.3378 11.4382 24.4511 11.337 24.5911C11.337 24.645 11.337 24.696 11.337 24.747V24.837Z" fill="#66C27E"/>
<path d="M21.5234 17.9304C20.1803 18.8941 18.838 19.8578 17.4965 20.8214L13.4383 23.7303C12.8558 24.1482 12.2749 24.571 11.6956 24.9989C11.5942 25.0969 11.4701 25.1516 11.3418 25.1548V25.2358C11.3418 25.2898 11.3418 25.3407 11.3418 25.3948C11.4838 25.4607 11.5825 25.3467 11.6956 25.2687C14.9162 22.9536 18.1392 20.6504 21.3501 18.3113C21.443 18.2699 21.5258 18.1997 21.5909 18.1074C21.6221 18.0294 21.6606 17.9244 21.5234 17.9304Z" fill="#66C27E"/>
<path d="M11.337 24.5911C12.1169 24.1203 12.8462 23.5385 13.5996 23.0047C14.9283 22.063 16.2473 21.1004 17.5736 20.1437L21.4127 17.3937C21.4689 17.3584 21.5269 17.3274 21.586 17.3007V16.7939C21.0916 17.0426 20.6203 17.3574 20.1803 17.7326C19.0033 18.5813 17.8215 19.4209 16.6469 20.2756C15.0751 21.4362 13.4865 22.5428 11.9219 23.6914C11.6985 23.7998 11.4983 23.9712 11.337 24.1923V24.5911Z" fill="#7ACB91"/>
<path d="M11.337 24.1923C12.7989 23.1366 14.2607 22.082 15.7226 21.0284C17.3272 19.8768 18.9319 18.7272 20.5366 17.5796C20.8904 17.3278 21.237 17.0638 21.586 16.8059C21.5644 16.602 21.4921 16.737 21.4392 16.776C20.5197 17.4297 19.5978 18.0805 18.6784 18.7402C17.4363 19.6299 16.1928 20.5236 14.9475 21.4212L11.337 24.0303V24.1923Z" fill="#66C27E"/>
<path d="M21.5234 17.9303C21.6294 18.0833 21.497 18.1013 21.4368 18.1433L14.7068 22.9805L11.337 25.3976C11.337 25.5326 11.337 25.6675 11.337 25.8025V25.8744C11.4694 25.9314 11.5608 25.8115 11.6571 25.7425C14.6298 23.6013 17.6072 21.4721 20.5631 19.3158C20.9426 19.0966 21.2997 18.8218 21.627 18.4971V17.8494C21.6055 17.8501 21.5845 17.8581 21.5663 17.8723C21.5481 17.8865 21.5333 17.9065 21.5234 17.9303Z" fill="#7ACB91"/>
<path d="M21.639 19.0611V18.5723C21.132 18.8829 20.6379 19.2251 20.1587 19.5979C18.9552 20.4615 17.7324 21.3402 16.5193 22.2159C15.234 23.1426 13.9438 24.0633 12.6681 24.9989C12.3167 25.2538 11.9604 25.4967 11.6114 25.7546C11.5032 25.8232 11.4117 25.9268 11.3467 26.0545V26.4564C11.5729 26.5133 11.7221 26.3065 11.8834 26.1895C13.3276 25.1249 14.7887 24.0902 16.2401 23.0466C17.9418 21.8201 19.6436 20.5875 21.3502 19.373C21.4699 19.3084 21.5707 19.1995 21.639 19.0611Z" fill="#7ACB91"/>
<path d="M11.337 26.0396L14.4661 23.7724C16.4912 22.3189 18.5163 20.8575 20.5414 19.388C20.9201 19.1422 21.2874 18.8699 21.6414 18.5723C21.6462 18.5477 21.6462 18.522 21.6414 18.4973C21.1322 18.8023 20.6372 19.1427 20.1587 19.5169C18.7963 20.4886 17.4363 21.4652 16.0788 22.4469L12.2276 25.2239C11.9316 25.4368 11.6403 25.6587 11.3467 25.8746C11.3467 25.9016 11.3467 25.9316 11.3467 25.9586L11.337 26.0396Z" fill="#66C27D"/>
<path d="M11.337 28.9274L14.5576 26.6033C15.7611 25.7456 16.9429 24.8849 18.1392 24.0332C19.3355 23.1815 20.4475 22.3178 21.6438 21.5471V21.0613C21.4031 21.0433 21.2346 21.2772 21.0445 21.4122C19.3869 22.5937 17.738 23.7803 16.0981 24.9718C14.8031 25.9105 13.5033 26.8192 12.2108 27.7818C11.9011 27.9637 11.6081 28.187 11.337 28.4476C11.337 28.5825 11.337 28.7175 11.337 28.8524V28.9274Z" fill="#7ACB91"/>
<path d="M21.639 20.2666V19.8557C21.2876 19.8557 21.0493 20.1886 20.7749 20.3835C19.4302 21.3392 18.0879 22.3038 16.748 23.2775C15.3037 24.3211 13.8596 25.3407 12.4154 26.4053C12.0592 26.6902 11.6523 26.8642 11.337 27.2421V27.6469C11.4814 27.7579 11.5777 27.6109 11.686 27.5389C13.5972 26.1415 15.5228 24.7799 17.4388 23.3914C18.7795 22.4228 20.125 21.4631 21.4657 20.4885C21.5427 20.4424 21.6041 20.3638 21.639 20.2666Z" fill="#7ACB91"/>
<path d="M21.6414 22.7526V22.2668C21.1632 22.5239 20.7041 22.833 20.2694 23.1905C18.7963 24.2461 17.324 25.3047 15.8526 26.3663C14.7213 27.1791 13.5924 27.9888 12.4659 28.8134C12.0755 29.063 11.6985 29.3434 11.337 29.6531V30.133C11.479 30.205 11.5777 30.085 11.6908 30.007C14.8681 27.7248 18.0357 25.4307 21.2057 23.1605C21.3718 23.0525 21.5523 22.9746 21.6414 22.7526Z" fill="#7ACB91"/>
<path d="M21.6438 24.5911V24.1143C21.5234 24.0573 21.4392 24.1533 21.3477 24.2192C19.0066 25.8946 16.6702 27.576 14.3385 29.2634C13.4415 29.9112 12.5421 30.5569 11.6403 31.2007C11.5254 31.2716 11.4224 31.3694 11.337 31.4886V31.9684L11.3804 31.9894C11.7764 31.7887 12.1547 31.5375 12.5092 31.2397C14.9476 29.5093 17.3786 27.746 19.8145 26.0036C20.336 25.6317 20.8559 25.2609 21.3742 24.891C21.4799 24.8155 21.5717 24.7134 21.6438 24.5911Z" fill="#7ACB91"/>
<path d="M0.0601807 23.9552C0.0613697 23.9801 0.0613697 24.0052 0.0601807 24.0302C0.267981 24.2856 0.513085 24.4892 0.782279 24.63C2.86835 26.1454 4.95442 27.6538 7.0405 29.1553C8.44619 30.16 9.82778 31.2126 11.2551 32.1542C11.2864 32.1633 11.3192 32.1569 11.3466 32.1362C11.3616 32.1128 11.3698 32.0837 11.3698 32.0537C11.3698 32.0238 11.3616 31.9947 11.3466 31.9712C10.1752 31.1196 9.00219 30.2689 7.82755 29.4192C6.67223 28.5825 5.51446 27.7548 4.35908 26.9181L0.267182 23.9462C0.192566 23.9102 0.122763 23.8382 0.0601807 23.9552Z" fill="#4FBA6A"/>
<path d="M21.6414 23.9582V23.5474C21.5283 23.4484 21.4368 23.5474 21.3453 23.6074C19.5594 24.8969 17.7709 26.1855 15.9801 27.4729C14.5359 28.5106 13.0917 29.5722 11.6475 30.5888C11.5165 30.6599 11.4076 30.7819 11.337 30.9367V31.3386C11.5777 31.3925 11.727 31.1737 11.9003 31.0387C13.3926 29.9891 14.8874 28.9095 16.3749 27.8328C17.6602 26.9032 18.9503 25.9855 20.2261 25.0499C20.5655 24.801 20.9025 24.5401 21.2539 24.3121C21.405 24.2369 21.5383 24.1151 21.6414 23.9582Z" fill="#7ACB91"/>
<path d="M11.337 30.9366C12.2501 30.2749 13.1632 29.6121 14.0762 28.9484L17.5495 26.4502L21.5187 23.5953C21.5582 23.5744 21.5993 23.5583 21.6414 23.5473C21.6414 23.4963 21.6414 23.4454 21.6414 23.3944C21.4874 23.2684 21.3742 23.4124 21.2611 23.4933C19.4895 24.7949 17.7035 26.0664 15.9103 27.3499C14.4661 28.4016 13.0123 29.4491 11.5488 30.4928C11.4803 30.5327 11.417 30.5853 11.3611 30.6487L11.337 30.6997V30.9366Z" fill="#66C27E"/>
<path d="M21.6389 20.2666C20.7242 20.9294 19.8144 21.5921 18.8998 22.2549C17.7444 23.0925 16.589 23.9262 15.4336 24.7559L11.6065 27.515C11.5206 27.5682 11.4312 27.6123 11.3394 27.6469C11.3394 27.7009 11.3394 27.7548 11.3394 27.8089C12.0114 27.4023 12.6639 26.9477 13.2939 26.4473C14.6418 25.4907 15.9825 24.5221 17.3232 23.5564L21.237 20.7344C21.3605 20.6304 21.4961 20.5505 21.6389 20.4975V20.2666Z" fill="#66C27E"/>
<path d="M11.337 27.2422C12.7973 26.1886 14.2583 25.1359 15.7202 24.0843C17.0633 23.1187 18.4104 22.158 19.7615 21.2024L21.6486 19.8559V19.7C20.9915 20.1648 20.3296 20.6236 19.6749 21.0944C18.3173 22.0571 16.9863 23.0287 15.6456 23.9914C14.2174 25.025 12.7812 26.0546 11.337 27.0802C11.337 27.1342 11.337 27.1882 11.337 27.2422Z" fill="#66C27D"/>
<path d="M21.6414 23.9583C19.9067 25.2098 18.1793 26.4584 16.4591 27.7039C15.0149 28.7515 13.5602 29.7921 12.0952 30.8258C11.8545 31.0057 11.5921 31.1677 11.3418 31.3386V31.4885C12.1867 30.8887 13.0267 30.307 13.8764 29.6892C15.2195 28.7255 16.5602 27.7579 17.8985 26.7862L21.6438 24.0872C21.6414 24.0602 21.6414 24.0092 21.6414 23.9583Z" fill="#66C27D"/>
<path d="M0.0650635 22.1919V22.5938L3.11233 24.8129L6.93705 27.5899C8.24166 28.5315 9.54868 29.4692 10.8581 30.4029C10.9995 30.5445 11.1637 30.6468 11.3395 30.7028C11.3758 30.6556 11.3988 30.5948 11.4049 30.5299C11.4109 30.4649 11.3998 30.3993 11.3731 30.3429L11.3371 30.289C9.77249 29.1614 8.20877 28.0328 6.64579 26.9032L2.72961 24.0842C1.88716 23.4844 1.04471 22.8636 0.209485 22.2518C0.162911 22.2264 0.114569 22.2064 0.0650635 22.1919Z" fill="#64C17B"/>
<path d="M11.337 28.4477C12.4603 27.648 13.5835 26.8483 14.7068 26.0486C16.0307 25.1009 17.3545 24.1443 18.6736 23.1936L21.6438 21.0614C21.6438 21.0104 21.6438 20.9594 21.6438 20.9084L18.1609 23.3915C16.9173 24.2892 15.6753 25.1889 14.4348 26.0906L11.337 28.2858V28.4477Z" fill="#66C27D"/>
<path d="M21.6389 19.061L16.8249 22.5398L11.414 26.4384C11.3925 26.4429 11.3705 26.4429 11.349 26.4384V26.6003C12.0855 26.1475 12.7788 25.5927 13.4912 25.1008C14.8271 24.1322 16.1678 23.1605 17.5085 22.1919L20.965 19.6968L21.6293 19.2169C21.6413 19.163 21.6413 19.112 21.6389 19.061Z" fill="#67C27D"/>
<path d="M11.337 29.6532C11.8539 29.3373 12.3576 28.989 12.8462 28.6096C14.3097 27.562 15.7723 26.5114 17.2342 25.4578C18.3703 24.6381 19.5064 23.8164 20.6425 22.9927C20.9771 22.7527 21.3068 22.5099 21.639 22.267C21.639 22.216 21.639 22.165 21.639 22.114C20.0664 23.2516 18.4971 24.3872 16.9309 25.5208C15.3263 26.6783 13.7144 27.8319 12.0952 28.9815C11.8546 29.1584 11.5921 29.3234 11.3394 29.4913L11.337 29.6532Z" fill="#67C27D"/>
<path d="M11.337 32.1393L8.17664 29.8511C6.05847 28.3177 3.9411 26.7852 1.82455 25.2538C1.24205 24.837 0.649932 24.4381 0.0626221 24.0303V24.4381L3.19173 26.7053C5.16868 28.1388 7.1464 29.5712 9.12497 31.0027C9.84708 31.5275 10.5956 32.0314 11.3298 32.5441L11.3683 32.4992C11.3953 32.4431 11.4068 32.3777 11.4012 32.3127C11.3955 32.2477 11.373 32.1869 11.337 32.1393Z" fill="#64C17B"/>
<path d="M11.337 32.7062C12.0089 32.2996 12.6615 31.845 13.2914 31.3447C14.6393 30.388 15.9777 29.4194 17.3208 28.4538L21.237 25.6318C21.3608 25.5266 21.4973 25.4466 21.6413 25.3949C21.6413 25.3439 21.6413 25.2899 21.6413 25.2389C21.4897 25.116 21.3741 25.2599 21.261 25.3409C19.321 26.7404 17.3801 28.1399 15.4385 29.5393C14.158 30.466 12.8678 31.3687 11.5873 32.3133C11.4923 32.3744 11.4054 32.4532 11.3297 32.5472C11.337 32.5982 11.337 32.6522 11.337 32.7062Z" fill="#66C27D"/>
<path d="M21.6414 22.7527C20.4331 23.6124 19.2248 24.4731 18.0164 25.3348C16.6733 26.3005 15.3326 27.29 13.9847 28.2437C13.1038 28.8765 12.2204 29.5033 11.337 30.133C11.337 30.187 11.337 30.238 11.337 30.292C11.467 30.358 11.5777 30.256 11.6644 30.187L18.7987 25.0588C19.5882 24.4891 20.3753 23.9163 21.1672 23.3585C21.3405 23.2356 21.5451 23.1545 21.6486 22.9087L21.6414 22.7527Z" fill="#66C27D"/>
<path d="M25.6467 12.3915C26.0222 12.3615 26.2894 12.0406 26.5926 11.8277C27.825 10.961 29.0453 10.0703 30.2681 9.18566C30.35 9.12869 30.4246 9.05669 30.5088 8.97271C30.4222 8.91573 30.3547 8.87681 30.2898 8.83182C29.8084 8.49293 29.7675 7.99806 30.2272 7.59028C30.3957 7.44333 30.4318 7.37133 30.2272 7.21839C27.8202 5.48501 25.4132 3.74265 23.0062 1.99128C22.9259 1.91044 22.8274 1.86268 22.7243 1.85462C22.6212 1.84657 22.5187 1.8786 22.4309 1.9463C22.159 2.1252 21.8539 2.21138 21.5466 2.19611C21.2393 2.18083 20.9407 2.06465 20.681 1.85933C20.6261 1.81091 20.5606 1.78491 20.4933 1.78491C20.426 1.78491 20.3604 1.81091 20.3056 1.85933C18.8782 2.88795 17.446 3.91058 16.0186 4.94221C15.9248 5.00818 15.79 5.05017 15.778 5.2421C16.5771 5.7969 17.3425 6.42367 18.1657 6.92449C18.8613 7.17037 19.581 7.30237 20.2646 7.62025C21.3478 8.12703 22.3082 8.81983 23.011 10.0193C23.1182 10.2644 23.2414 10.4981 23.3793 10.7181C24.111 11.3329 24.8981 11.8217 25.6467 12.3915Z" fill="#4DB969"/>
<path d="M10.8845 8.62793C10.887 8.65837 10.8842 8.68908 10.8762 8.71804C10.8683 8.747 10.8554 8.77347 10.8385 8.79569C10.8216 8.81792 10.801 8.83529 10.7782 8.84667C10.7555 8.85812 10.7309 8.86324 10.7064 8.86183C10.3357 9.3746 9.90486 9.82145 9.65699 10.4693C9.43813 11.0536 9.35988 11.7045 9.43163 12.3431C9.50338 12.9818 9.72214 13.5809 10.0613 14.0679C11.0795 15.5344 12.437 16.2092 13.8933 16.644C14.9977 16.9573 16.1333 17.0655 17.2631 16.9649C18.3893 16.8703 19.4985 16.5723 20.5559 16.0802L20.8134 15.8523C20.0215 15.1925 19.1791 14.6347 18.3583 14.0529C15.8695 12.2316 13.3782 10.4233 10.8845 8.62793Z" fill="#93D5A7"/>
<path d="M23.3864 10.7121C23.194 10.0218 22.835 9.42273 22.3586 8.99669C21.1656 7.79111 19.7048 7.06996 18.1729 6.93042C18.7582 7.42205 19.3631 7.87651 19.9853 8.29191C21.0396 9.08067 22.1131 9.83934 23.1794 10.6071C23.2461 10.6487 23.3153 10.6838 23.3864 10.7121Z" fill="#93D5A7"/>
<path d="M11.337 32.541C11.9069 32.2079 12.4585 31.8282 12.9882 31.4044C14.2976 30.4778 15.5998 29.5331 16.9044 28.5915C18.209 27.6498 19.4968 26.7171 20.7965 25.7905C21.0575 25.5592 21.3425 25.3736 21.6438 25.2387C21.6438 25.0768 21.6438 24.9148 21.6438 24.7529C21.4801 24.6539 21.3863 24.8428 21.2804 24.9208L17.1692 27.8717C15.335 29.1913 13.5081 30.5228 11.6692 31.8243C11.5433 31.8922 11.4314 31.9948 11.3418 32.1242C11.337 32.2741 11.337 32.4091 11.337 32.541Z" fill="#7ACB91"/>
<path d="M21.6414 22.9087L16.6782 26.4834C15.2244 27.527 13.7705 28.5677 12.3167 29.6053C11.9917 29.8392 11.6668 30.0671 11.3539 30.295V30.6968C11.6484 30.5745 11.926 30.3965 12.1771 30.169C13.6598 29.1074 15.1473 28.0308 16.6324 26.9542C18.1793 25.8386 19.7231 24.7211 21.2635 23.6014C21.3765 23.4978 21.5063 23.4261 21.6438 23.3915C21.6438 23.2326 21.6438 23.0707 21.6414 22.9087Z" fill="#7ACB91"/>
<path d="M11.337 32.1392C12.7973 31.0875 14.2583 30.0349 15.7202 28.9813C17.0649 28.0156 18.412 27.052 19.7615 26.0904L21.6486 24.7439C21.6486 24.6929 21.6486 24.6389 21.6486 24.5879C20.9795 25.0587 20.3079 25.5235 19.6436 26.0004C18.3173 26.966 16.979 27.9317 15.6456 28.8914C14.2174 29.923 12.7812 30.9516 11.337 31.9772C11.337 32.0312 11.337 32.0882 11.337 32.1392Z" fill="#66C27D"/>
</g>
</g>
<defs>
<clipPath id="clip0_84_151">
<rect width="33" height="33" fill="white"/>
</clipPath>
</defs>
</svg>
