<svg width="32" height="32" viewBox="0 0 32 32" fill="none" xmlns="http://www.w3.org/2000/svg">
<path d="M31.3377 15.7378L16.7984 0.350447C16.6937 0.239356 16.5694 0.151221 16.4325 0.0910872C16.2956 0.0309529 16.1489 0 16.0007 0C15.8525 0 15.7057 0.0309529 15.5688 0.0910872C15.432 0.151221 15.3076 0.239356 15.2029 0.350447L0.663606 15.7378C0.240028 16.1864 0 16.7958 0 17.4313C0 18.751 1.01306 19.8239 2.25908 19.8239H3.79102V30.8037C3.79102 31.4654 4.29579 32 4.92057 32H13.7416V23.6259H17.695V32H27.0808C27.7055 32 28.2103 31.4654 28.2103 30.8037V19.8239H29.7422C30.3423 19.8239 30.9177 19.5735 31.3412 19.1211C32.2202 18.1865 32.2202 16.6724 31.3377 15.7378Z" fill="url(#paint0_linear_0_68)"/>
<defs>
<linearGradient id="paint0_linear_0_68" x1="-4.5" y1="6" x2="35" y2="34" gradientUnits="userSpaceOnUse">
<stop stop-color="white"/>
<stop offset="1" stop-color="#A7A7A7"/>
</linearGradient>
</defs>
</svg>
