<svg width="15" height="15" viewBox="0 0 15 15" fill="none" xmlns="http://www.w3.org/2000/svg">
<path d="M10.6425 0H4.3575C1.6275 0 0 1.6275 0 4.3575V10.635C0 13.3725 1.6275 15 4.3575 15H10.635C13.365 15 14.9925 13.3725 14.9925 10.6425V4.3575C15 1.6275 13.3725 0 10.6425 0ZM4.8525 5.235L7.1025 2.985C7.155 2.9325 7.215 2.895 7.2825 2.865C7.4175 2.805 7.575 2.805 7.71 2.865C7.7775 2.895 7.8375 2.9325 7.89 2.985L10.14 5.235C10.3575 5.4525 10.3575 5.8125 10.14 6.03C10.0275 6.1425 9.885 6.195 9.7425 6.195C9.6 6.195 9.4575 6.1425 9.345 6.03L8.055 4.74V9.3825C8.055 9.69 7.8 9.945 7.4925 9.945C7.185 9.945 6.93 9.69 6.93 9.3825V4.74L5.64 6.03C5.4225 6.2475 5.0625 6.2475 4.845 6.03C4.6275 5.8125 4.635 5.46 4.8525 5.235ZM12.18 11.415C10.6725 11.9175 9.09 12.1725 7.5 12.1725C5.91 12.1725 4.3275 11.9175 2.82 11.415C2.5275 11.3175 2.37 10.995 2.4675 10.7025C2.565 10.41 2.8875 10.245 3.18 10.35C5.97 11.28 9.0375 11.28 11.8275 10.35C12.12 10.2525 12.4425 10.41 12.54 10.7025C12.63 11.0025 12.4725 11.3175 12.18 11.415Z" fill="#5B7FFF"/>
</svg>
