<svg width="21" height="21" viewBox="0 0 21 21" fill="none" xmlns="http://www.w3.org/2000/svg">
<rect width="20.9184" height="20.9184" rx="5" transform="matrix(-1 0 0 1 20.9185 0)" fill="#FF002E"/>
<path d="M10.5 11.2452L7.89163 13.8536C7.79404 13.9512 7.66984 14 7.51901 14C7.36819 14 7.24398 13.9512 7.14639 13.8536C7.0488 13.756 7 13.6318 7 13.481C7 13.3302 7.0488 13.206 7.14639 13.1084L9.75475 10.5L7.14639 7.89163C7.0488 7.79404 7 7.66984 7 7.51901C7 7.36819 7.0488 7.24398 7.14639 7.14639C7.24398 7.0488 7.36819 7 7.51901 7C7.66984 7 7.79404 7.0488 7.89163 7.14639L10.5 9.75475L13.1084 7.14639C13.206 7.0488 13.3302 7 13.481 7C13.6318 7 13.756 7.0488 13.8536 7.14639C13.9512 7.24398 14 7.36819 14 7.51901C14 7.66984 13.9512 7.79404 13.8536 7.89163L11.2452 10.5L13.8536 13.1084C13.9512 13.206 14 13.3302 14 13.481C14 13.6318 13.9512 13.756 13.8536 13.8536C13.756 13.9512 13.6318 14 13.481 14C13.3302 14 13.206 13.9512 13.1084 13.8536L10.5 11.2452Z" fill="white"/>
</svg>
