<svg width="40" height="28" viewBox="0 0 40 28" fill="none" xmlns="http://www.w3.org/2000/svg">
<path opacity="0.4" d="M11.5 3.5C11.5 5.43125 9.93125 7 8 7C6.06875 7 4.5 5.43125 4.5 3.5C4.5 1.56875 6.06875 0 8 0C9.93125 0 11.5 1.56875 11.5 3.5ZM4 13.3562C3.375 14.0562 3 14.9875 3 16C3 17.0125 3.375 17.9437 4 18.6437V13.3562ZM13.025 10.275C11.1687 11.9187 10 14.325 10 17C10 19.1437 10.75 21.1125 12 22.6562V24C12 25.1063 11.1062 26 10 26H6C4.89375 26 4 25.1063 4 24V22.325C1.6375 21.2 0 18.7938 0 16C0 12.1313 3.13125 9 7 9H9C10.5 9 11.8875 9.46875 13.025 10.2688V10.275ZM28 24V22.6562C29.25 21.1125 30 19.1437 30 17C30 14.325 28.8313 11.9187 26.975 10.2688C28.1125 9.46875 29.5 9 31 9H33C36.8688 9 40 12.1313 40 16C40 18.7938 38.3625 21.2 36 22.325V24C36 25.1063 35.1063 26 34 26H30C28.8937 26 28 25.1063 28 24ZM35.5 3.5C35.5 5.43125 33.9313 7 32 7C30.0688 7 28.5 5.43125 28.5 3.5C28.5 1.56875 30.0688 0 32 0C33.9313 0 35.5 1.56875 35.5 3.5ZM36 13.3562V18.65C36.625 17.9438 37 17.0188 37 16.0063C37 14.9938 36.625 14.0625 36 13.3625V13.3562ZM20 8C17.7938 8 16 6.20625 16 4C16 1.79375 17.7938 0 20 0C22.2062 0 24 1.79375 24 4C24 6.20625 22.2062 8 20 8ZM15 17C15 18.0125 15.375 18.9375 16 19.6437V14.3563C15.375 15.0625 15 15.9875 15 17ZM24 14.3563V19.65C24.625 18.9438 25 18.0188 25 17.0063C25 15.9938 24.625 15.0625 24 14.3625V14.3563ZM28 17C28 19.7938 26.3625 22.2 24 23.325V26C24 27.1063 23.1063 28 22 28H18C16.8937 28 16 27.1063 16 26V23.325C13.6375 22.2 12 19.7938 12 17C12 13.1313 15.1313 10 19 10H21C24.8687 10 28 13.1313 28 17Z" fill="url(#paint0_linear_0_73)"/>
<defs>
<linearGradient id="paint0_linear_0_73" x1="0" y1="0" x2="40" y2="28" gradientUnits="userSpaceOnUse">
<stop stop-color="white"/>
<stop offset="1" stop-color="#A7A7A7"/>
</linearGradient>
</defs>
</svg>
