<svg width="58" height="58" viewBox="0 0 58 58" fill="none" xmlns="http://www.w3.org/2000/svg">
<path d="M46.7869 17.4688C48.2884 15.9673 48.2884 13.5329 46.7869 12.0314L45.9686 11.2131C44.4671 9.7116 42.0327 9.7116 40.5312 11.2131L29 22.7443L17.4688 11.2131C15.9673 9.71161 13.5329 9.7116 12.0314 11.2131L11.2131 12.0314C9.71158 13.5329 9.71158 15.9673 11.2131 17.4688L22.7443 29L11.2131 40.5313C9.71159 42.0327 9.71158 44.4671 11.2131 45.9686L12.0314 46.7869C13.5329 48.2884 15.9673 48.2884 17.4688 46.7869L29 35.2557L40.5312 46.7869C42.0327 48.2884 44.4671 48.2884 45.9686 46.7869L46.7869 45.9686C48.2884 44.4671 48.2884 42.0327 46.7869 40.5313L35.2557 29L46.7869 17.4688Z" fill="#FF002E"/>
</svg>
